<svg width="131" height="25" viewBox="0 0 131 25" fill="none" xmlns="http://www.w3.org/2000/svg">
<g clip-path="url(#clip0_703_827)">
<path fill-rule="evenodd" clip-rule="evenodd" d="M51.4217 19.5561C46.606 23.1102 39.6241 25.0001 33.6117 25.0001C25.1858 25.0001 17.5979 21.8854 11.8556 16.7005C11.4053 16.293 11.8069 15.7371 12.3488 16.0523C18.5436 19.6573 26.2054 21.8285 34.1174 21.8285C39.4551 21.8285 45.3228 20.7204 50.7218 18.4303C51.5361 18.0855 52.219 18.967 51.4217 19.5561Z" fill="#F79C34"/>
<path fill-rule="evenodd" clip-rule="evenodd" d="M53.4264 17.2676C52.8099 16.4791 49.3548 16.894 47.8023 17.0801C47.332 17.1369 47.2589 16.7257 47.6827 16.4282C50.4394 14.4917 54.9568 15.0506 55.4817 15.6995C56.0103 16.3529 55.3422 20.8822 52.7597 23.0431C52.3618 23.3753 51.9838 23.1981 52.1603 22.7596C52.742 21.3074 54.0429 18.0575 53.4264 17.2676Z" fill="#F79C34"/>
<path fill-rule="evenodd" clip-rule="evenodd" d="M47.9113 2.74914V0.868035C47.9128 0.581587 48.1283 0.391113 48.3882 0.391852L56.8207 0.391113C57.0902 0.391113 57.3072 0.586755 57.3072 0.86582V2.47894C57.3043 2.74988 57.0761 3.10278 56.6723 3.66312L52.304 9.90002C53.9252 9.86236 55.6402 10.1053 57.1138 10.9329C57.446 11.1196 57.5354 11.3965 57.5612 11.6674V13.6748C57.5612 13.9516 57.2585 14.2713 56.9396 14.1052C54.3446 12.7453 50.9005 12.5969 48.0301 14.1214C47.737 14.278 47.4307 13.962 47.4307 13.6851V11.7767C47.4307 11.4718 47.4366 10.9491 47.7444 10.484L52.8045 3.22385L48.3985 3.22311C48.1291 3.22311 47.9128 3.03116 47.9113 2.74914Z" fill="#333E47"/>
<path fill-rule="evenodd" clip-rule="evenodd" d="M17.1521 14.5004H14.5866C14.3423 14.4849 14.1474 14.3018 14.1274 14.067L14.1297 0.899995C14.1297 0.637172 14.3511 0.426765 14.625 0.426765L17.0141 0.426027C17.2636 0.438577 17.4644 0.627574 17.4799 0.86825V2.58694H17.5286C18.151 0.924358 19.3241 0.148438 20.9048 0.148438C22.509 0.148438 23.5153 0.924358 24.2336 2.58694C24.856 0.924358 26.269 0.148438 27.7773 0.148438C28.8552 0.148438 30.0283 0.592137 30.7466 1.58954C31.5609 2.69842 31.3941 4.30489 31.3941 5.71794L31.3911 14.0272C31.3911 14.2892 31.1704 14.5004 30.8965 14.5004H28.3347C28.0763 14.4841 27.874 14.2804 27.874 14.0279L27.8733 7.04756C27.8733 6.49386 27.9213 5.10887 27.8009 4.58248C27.6097 3.69508 27.0353 3.44555 26.2934 3.44555C25.6703 3.44555 25.0236 3.86119 24.76 4.52563C24.4964 5.19155 24.5208 6.29896 24.5208 7.04756V14.0272C24.5208 14.2892 24.2993 14.5004 24.0262 14.5004H21.4636C21.206 14.4841 21.0029 14.2804 21.0029 14.0279L21 7.04756C21 5.57914 21.2399 3.41897 19.4201 3.41897C17.5759 3.41897 17.6482 5.52377 17.6482 7.04756L17.6468 14.0272C17.6468 14.2892 17.4253 14.5004 17.1521 14.5004Z" fill="#333E47"/>
<path fill-rule="evenodd" clip-rule="evenodd" d="M64.5896 2.83647C62.6981 2.83647 62.5786 5.41229 62.5786 7.01951C62.5786 8.62672 62.5549 12.0626 64.5667 12.0626C66.5541 12.0626 66.6501 9.2919 66.6501 7.602C66.6501 6.49386 66.6014 5.1635 66.2662 4.11073C65.979 3.19601 65.4039 2.83647 64.5896 2.83647ZM64.5667 0.148438C68.374 0.148438 70.433 3.41897 70.433 7.57468C70.433 11.5909 68.1584 14.778 64.5667 14.778C60.8303 14.778 58.7949 11.5082 58.7949 7.43589C58.7949 3.33481 60.854 0.148438 64.5667 0.148438Z" fill="#333E47"/>
<path fill-rule="evenodd" clip-rule="evenodd" d="M75.3716 14.5004H72.815C72.5588 14.4841 72.355 14.2804 72.355 14.0279L72.3506 0.856437C72.3727 0.615023 72.5854 0.426765 72.8437 0.426765L75.2232 0.426027C75.4476 0.437839 75.6322 0.589922 75.6794 0.794423V2.80842H75.7274C76.4465 1.00704 77.4513 0.148438 79.2231 0.148438C80.3726 0.148438 81.4985 0.564083 82.2168 1.70028C82.8872 2.75305 82.8872 4.52563 82.8872 5.80062V14.0862C82.8591 14.3195 82.6494 14.5004 82.3955 14.5004H79.8241C79.5864 14.4856 79.3951 14.3107 79.3671 14.0862V6.93756C79.3671 5.49646 79.5354 3.39018 77.7628 3.39018C77.1405 3.39018 76.5654 3.80582 76.2782 4.44295C75.9186 5.24692 75.8707 6.05016 75.8707 6.93756V14.0272C75.8662 14.2892 75.6447 14.5004 75.3716 14.5004Z" fill="#333E47"/>
<path fill-rule="evenodd" clip-rule="evenodd" d="M43.7747 14.4677C43.6056 14.6198 43.3613 14.6301 43.1693 14.5275C42.3173 13.8195 42.1645 13.4924 41.6987 12.8176C40.2908 14.2521 39.2934 14.6825 37.4691 14.6825C35.3097 14.6825 33.6294 13.3492 33.6294 10.6841C33.6294 8.6014 34.7582 7.1854 36.3654 6.49142C37.7571 5.88014 39.7009 5.7694 41.1893 5.60255V5.26959C41.1893 4.65756 41.2373 3.93701 40.877 3.40915C40.5647 2.93666 39.9652 2.74249 39.4374 2.74249C38.4584 2.74249 37.5895 3.24378 37.3754 4.28252C37.3303 4.5136 37.162 4.7432 36.9302 4.75501L34.443 4.48555C34.2333 4.43756 34 4.26923 34.0598 3.94882C34.6246 0.97434 37.2809 0.0470738 39.695 0.0219727H39.8855C41.1213 0.0374763 42.6998 0.376342 43.661 1.29844C44.9094 2.4649 44.7883 4.0197 44.7883 5.71403V9.71028C44.7883 10.9129 45.2881 11.44 45.7569 12.0875C45.9216 12.3215 45.9577 12.5984 45.7488 12.7697C45.2246 13.2089 44.2937 14.0173 43.7821 14.4736L43.7747 14.4677ZM41.1893 8.21307C41.1893 9.21268 41.2129 10.0455 40.7094 10.9343C40.3011 11.6556 39.6529 12.1001 38.9331 12.1001C37.9497 12.1001 37.3739 11.3507 37.3739 10.2396C37.3739 8.05434 39.3333 7.65715 41.1893 7.65715V8.21307Z" fill="#333E47"/>
<path fill-rule="evenodd" clip-rule="evenodd" d="M10.146 14.4677C9.97623 14.6198 9.73112 14.6301 9.53991 14.5275C8.68721 13.8195 8.53439 13.4924 8.06928 12.8176C6.66066 14.2521 5.664 14.6825 3.83974 14.6825C1.6803 14.6825 0 13.3492 0 10.6841C0 8.6014 1.12734 7.1854 2.73602 6.49142C4.12766 5.88014 6.07152 5.7694 7.55914 5.60255V5.26959C7.55914 4.65756 7.60786 3.93701 7.24759 3.40915C6.9353 2.93666 6.33509 2.74249 5.80796 2.74249C4.82902 2.74249 3.9586 3.24378 3.74598 4.28252C3.70168 4.5136 3.53262 4.7432 3.30006 4.75501L0.813572 4.48555C0.603166 4.43756 0.369873 4.26923 0.430411 3.94882C0.99371 0.97434 3.65074 0.0470738 6.06562 0.0219727H6.25609C7.49195 0.0374763 9.07037 0.376342 10.0316 1.29844C11.2793 2.4649 11.1589 4.0197 11.1589 5.71403V9.71028C11.1589 10.9129 11.6587 11.44 12.1275 12.0875C12.2907 12.3215 12.3284 12.5984 12.1194 12.7697C11.5953 13.2089 10.6636 14.0173 10.1519 14.4736L10.146 14.4677ZM7.55914 8.21307C7.55914 9.21268 7.5835 10.0455 7.07926 10.9343C6.67174 11.6556 6.02354 12.1001 5.30299 12.1001C4.31961 12.1001 3.74376 11.3507 3.74376 10.2396C3.74376 8.05434 5.70387 7.65715 7.55914 7.65715V8.21307Z" fill="#333E47"/>
<path fill-rule="evenodd" clip-rule="evenodd" d="M117.955 19.2237C117.955 18.89 117.955 18.5902 117.955 18.2565C117.955 17.9812 118.09 17.7914 118.378 17.8084C118.914 17.8844 119.672 17.9605 120.21 17.8497C120.913 17.7036 121.417 17.2052 121.715 16.5223C122.135 15.5611 122.414 14.7859 122.589 14.2773L117.252 1.05634C117.162 0.831911 117.136 0.415527 117.584 0.415527H119.45C119.805 0.415527 119.95 0.641438 120.03 0.862918L123.899 11.6018L127.593 0.862918C127.668 0.642914 127.819 0.415527 128.172 0.415527H129.931C130.377 0.415527 130.352 0.831173 130.263 1.05634L124.969 14.69C124.284 16.5046 123.371 19.3949 121.316 19.897C120.285 20.1664 118.985 20.069 118.222 19.7493C118.029 19.6526 117.955 19.3942 117.955 19.2237Z" fill="#333E47"/>
<path fill-rule="evenodd" clip-rule="evenodd" d="M115.467 13.6949C115.467 13.9407 115.265 14.1423 115.018 14.1423H113.702C113.418 14.1423 113.224 13.937 113.188 13.6949L113.056 12.7994C112.451 13.311 111.709 13.7606 110.904 14.0736C109.357 14.6746 107.573 14.7742 106.061 13.8455C104.968 13.1744 104.388 11.8625 104.388 10.5093C104.388 9.46239 104.71 8.42439 105.426 7.67061C106.38 6.64073 107.764 6.13502 109.435 6.13502C110.444 6.13502 111.888 6.25388 112.938 6.59717V4.79506C112.938 2.96267 112.167 2.16977 110.133 2.16977C108.578 2.16977 107.389 2.40454 105.734 2.91912C105.469 2.92797 105.313 2.72643 105.313 2.48058V1.45291C105.313 1.20633 105.524 0.967871 105.752 0.89552C106.934 0.380209 108.608 0.0590615 110.388 0C112.709 0 115.467 0.523433 115.467 4.09222V13.6949ZM112.938 11.0637V8.34465C112.055 8.10324 110.594 8.00284 110.029 8.00284C109.135 8.00284 108.157 8.21398 107.646 8.76399C107.265 9.16709 107.092 9.74589 107.092 10.3055C107.092 11.029 107.342 11.7547 107.927 12.1135C108.606 12.5749 109.66 12.5188 110.65 12.2375C111.601 11.9673 112.495 11.4897 112.938 11.0637Z" fill="#333E47"/>
<path fill-rule="evenodd" clip-rule="evenodd" d="M96.0686 2.21056C98.9877 2.21056 99.7829 4.50584 99.7829 7.13407C99.7991 8.90592 99.4735 10.4858 98.5559 11.3902C97.8693 12.0672 97.1022 12.2518 95.9475 12.2518C94.9199 12.2518 93.5681 11.7158 92.5582 10.9694V3.45454C93.6095 2.64687 94.9509 2.21056 96.0686 2.21056ZM92.1108 19.6957H90.3485C90.1019 19.6957 89.9004 19.4942 89.9004 19.2483C89.9004 13.1281 89.9004 7.00709 89.9004 0.886841C89.9004 0.640997 90.1019 0.43945 90.3485 0.43945H91.6973C91.9808 0.43945 92.175 0.644689 92.2112 0.886841L92.3529 1.84881C93.6161 0.727375 95.2425 0.00830078 96.7921 0.00830078C101.132 0.00830078 102.559 3.58448 102.559 7.30314C102.559 11.2817 100.376 14.4784 96.6843 14.4784C95.1295 14.4784 93.6759 13.9047 92.5582 12.9081V19.2483C92.5582 19.4942 92.3566 19.6957 92.1108 19.6957Z" fill="#333E47"/>
</g>
<defs>
<clipPath id="clip0_703_827">
<rect width="130.316" height="25" fill="white"/>
</clipPath>
</defs>
</svg>
