<svg width="120" height="25" viewBox="0 0 120 25" fill="none" xmlns="http://www.w3.org/2000/svg">
<g clip-path="url(#clip0_703_781)">
<path d="M24.6219 15.5253C22.9524 22.2217 16.17 26.297 9.47289 24.6271C2.77846 22.9576 -1.29687 16.1749 0.373416 9.47889C2.04214 2.78173 8.82447 -1.29399 15.5197 0.37552C22.2164 2.04503 26.2914 8.82851 24.6219 15.5253Z" fill="#F7931A"/>
<path d="M18.0087 10.7205C18.2575 9.05726 16.9911 8.16313 15.2595 7.56665L15.8212 5.31356L14.4498 4.97177L13.9029 7.16548C13.5424 7.07564 13.1721 6.99088 12.8041 6.9069L13.3549 4.69873L11.9842 4.35693L11.4221 6.60924C11.1237 6.54127 10.8307 6.47409 10.5463 6.40339L10.5479 6.39636L8.65651 5.92409L8.29167 7.38891C8.29167 7.38891 9.30923 7.62212 9.28775 7.63657C9.84321 7.77524 9.94359 8.14281 9.92679 8.43421L9.28696 11.001C9.32524 11.0107 9.37486 11.0248 9.42954 11.0467C9.38384 11.0353 9.33501 11.0228 9.28462 11.0107L8.38775 14.6064C8.31979 14.7751 8.14753 15.0283 7.75926 14.9322C7.77293 14.9521 6.7624 14.6833 6.7624 14.6833L6.08154 16.2532L7.86628 16.6981C8.19831 16.7813 8.52369 16.8685 8.844 16.9505L8.27644 19.2294L9.64633 19.5712L10.2084 17.3165C10.5826 17.4181 10.9459 17.5118 11.3014 17.6001L10.7412 19.8442L12.1127 20.186L12.6803 17.9114C15.0189 18.354 16.7775 18.1755 17.5177 16.0603C18.1142 14.3572 17.488 13.3748 16.2576 12.7342C17.1536 12.5275 17.8286 11.9381 18.0087 10.7205ZM14.8752 15.1146C14.4513 16.8177 11.5838 15.897 10.6541 15.6661L11.4072 12.647C12.3369 12.8791 15.3181 13.3384 14.8752 15.1146ZM15.2994 10.6959C14.9127 12.2451 12.526 11.458 11.7518 11.265L12.4346 8.5268C13.2088 8.71976 15.7021 9.07991 15.2994 10.6959Z" fill="white"/>
<path d="M36.6295 7.56462C37.6432 7.56462 38.5189 7.74626 39.2549 8.10289C39.9943 8.46304 40.6044 8.9482 41.0939 9.55834C41.5767 10.1716 41.9361 10.8884 42.1681 11.7099C42.3986 12.5337 42.5142 13.4192 42.5142 14.3673C42.5142 15.8235 42.2474 17.1992 41.7087 18.4961C41.1701 19.7949 40.4392 20.9214 39.5095 21.8824C38.5806 22.8421 37.4838 23.5987 36.219 24.1577C34.9561 24.7171 33.5831 24.9968 32.1089 24.9968C31.9183 24.9968 31.5831 24.9913 31.1097 24.9815C30.6362 24.9718 30.0921 24.9229 29.4828 24.8405C28.8695 24.755 28.2211 24.6284 27.5363 24.4589C26.8519 24.2925 26.2019 24.0593 25.5898 23.7632L31.0632 0.765128L35.9655 0.00537109L34.0057 8.16657C34.4252 7.97751 34.8479 7.83102 35.2698 7.72439C35.692 7.61931 36.1451 7.56462 36.6295 7.56462ZM32.5175 21.1078C33.2557 21.1078 33.9514 20.9261 34.6049 20.5695C35.2604 20.2125 35.826 19.7304 36.2998 19.1301C36.7737 18.527 37.1486 17.8477 37.4221 17.0887C37.6955 16.3297 37.8338 15.5379 37.8338 14.7141C37.8338 13.702 37.6646 12.9126 37.3275 12.3419C36.9904 11.7735 36.3666 11.4876 35.4608 11.4876C35.1639 11.4876 34.7815 11.5442 34.3073 11.6454C33.8315 11.7528 33.4057 11.9759 33.0241 12.3114L30.9374 20.9785C31.0632 21.0007 31.1745 21.0218 31.2694 21.0418C31.3624 21.0632 31.4651 21.0785 31.5675 21.089C31.6757 21.1011 31.7995 21.1074 31.9491 21.1074C32.0987 21.1074 32.2858 21.1078 32.5175 21.1078Z" fill="#4D4D4D"/>
<path d="M47.5979 24.5566H42.9155L46.8698 7.91736H51.5841L47.5979 24.5566ZM49.8764 5.89005C49.2229 5.89005 48.6303 5.69552 48.1045 5.30568C47.5744 4.91819 47.3119 4.32172 47.3119 3.51782C47.3119 3.07564 47.4018 2.6608 47.5799 2.2694C47.7608 1.87878 47.9971 1.54246 48.2932 1.25653C48.5889 0.972939 48.9315 0.746376 49.3205 0.575675C49.7119 0.407709 50.1283 0.32373 50.5721 0.32373C51.2252 0.32373 51.8146 0.51826 52.3423 0.908097C52.8681 1.29989 53.1326 1.89636 53.1326 2.69596C53.1326 3.1397 53.0431 3.5561 52.8634 3.94672C52.6849 4.33734 52.4486 4.67366 52.1525 4.95959C51.8591 5.24357 51.5134 5.46935 51.1252 5.63849C50.7334 5.80919 50.3185 5.89005 49.8764 5.89005Z" fill="#4D4D4D"/>
<path d="M55.6876 3.77148L60.5918 3.01172L59.3875 7.91633H64.6398L63.6913 11.7749H58.4707L57.0801 17.5951C56.952 18.0802 56.8793 18.5333 56.859 18.9544C56.836 19.3775 56.8895 19.7408 57.0161 20.0466C57.1418 20.3533 57.368 20.5896 57.6961 20.7568C58.0227 20.9267 58.4903 21.0122 59.1035 21.0122C59.6086 21.0122 60.1008 20.9642 60.5765 20.8689C61.0496 20.7751 61.5289 20.6447 62.014 20.474L62.3632 24.0817C61.7304 24.3137 61.0453 24.5133 60.307 24.6813C59.5676 24.8516 58.6922 24.9336 57.6805 24.9336C56.2258 24.9336 55.0981 24.7176 54.2946 24.2876C53.4923 23.8544 52.9251 23.2626 52.5857 22.5134C52.2509 21.7669 52.1013 20.9064 52.1431 19.9368C52.1864 18.965 52.3329 17.9435 52.5857 16.8678L55.6876 3.77148Z" fill="#4D4D4D"/>
<path d="M64.4336 17.9118C64.4336 16.4787 64.6656 15.1271 65.1293 13.8619C65.5922 12.5955 66.259 11.4881 67.1242 10.5377C67.9863 9.59206 69.0366 8.84284 70.273 8.29285C71.5034 7.74599 72.8811 7.47021 74.3995 7.47021C75.3498 7.47021 76.1986 7.56006 76.9455 7.74014C77.6955 7.92177 78.374 8.15654 78.9877 8.45107L77.3728 12.1229C76.951 11.9518 76.5131 11.801 76.0604 11.6643C75.6073 11.5248 75.0541 11.4577 74.3998 11.4577C72.837 11.4577 71.6015 11.9963 70.6819 13.0701C69.7659 14.1447 69.3046 15.5912 69.3046 17.4056C69.3046 18.481 69.5366 19.3505 70.0023 20.0157C70.4655 20.6809 71.3214 21.0118 72.5639 21.0118C73.1772 21.0118 73.769 20.9477 74.3358 20.8227C74.9069 20.6962 75.4112 20.5368 75.8553 20.3485L76.2049 24.1125C75.6127 24.3422 74.9596 24.5496 74.2432 24.7313C73.5253 24.9067 72.6706 24.9977 71.6796 24.9977C70.3714 24.9977 69.264 24.8063 68.3581 24.4293C67.4519 24.0465 66.7031 23.5383 66.1133 22.8946C65.5203 22.2493 65.0945 21.4958 64.8312 20.631C64.568 19.7669 64.4336 18.8591 64.4336 17.9118Z" fill="#4D4D4D"/>
<path d="M85.2344 24.9977C84.1168 24.9977 83.1461 24.8274 82.3227 24.4903C81.5016 24.1532 80.8215 23.6801 80.2837 23.0669C79.745 22.4567 79.3419 21.7337 79.0657 20.9005C78.7895 20.0677 78.6567 19.1454 78.6567 18.1349C78.6567 16.8673 78.8603 15.6002 79.2716 14.3365C79.6809 13.0701 80.2883 11.9323 81.0922 10.9209C81.8899 9.90807 82.8739 9.07995 84.0324 8.43426C85.1898 7.79286 86.5211 7.47021 88.0164 7.47021C89.1136 7.47021 90.0792 7.64091 90.914 7.97801C91.7448 8.31434 92.4292 8.79129 92.9702 9.40143C93.5053 10.0147 93.912 10.7346 94.1854 11.569C94.4608 12.4002 94.5967 13.3248 94.5967 14.3361C94.5967 15.5998 94.3959 16.8669 93.9975 18.1345C93.5987 19.3958 93.0069 20.5364 92.2257 21.5501C91.446 22.5614 90.471 23.3891 89.2999 24.0321C88.1304 24.675 86.7742 24.9977 85.2344 24.9977ZM87.5746 11.458C86.8804 11.458 86.2668 11.6596 85.7414 12.0576C85.2141 12.4604 84.7711 12.9666 84.4141 13.5772C84.0531 14.1904 83.7856 14.8592 83.6047 15.5861C83.4254 16.3146 83.3375 17.0033 83.3375 17.6576C83.3375 18.7134 83.5078 19.5357 83.8426 20.1274C84.182 20.7161 84.7918 21.0122 85.6781 21.0122C86.3746 21.0122 86.9851 20.8122 87.5136 20.4099C88.0378 20.0103 88.4812 19.5036 88.841 18.8919C89.1996 18.2818 89.4695 17.6111 89.6503 16.883C89.8273 16.1568 89.9175 15.4642 89.9175 14.8111C89.9175 13.758 89.748 12.9338 89.4101 12.3428C89.0726 11.7541 88.4601 11.458 87.5746 11.458Z" fill="#4D4D4D"/>
<path d="M99.699 24.5566H95.0127L98.9669 7.91736H103.684L99.699 24.5566ZM101.974 5.89005C101.321 5.89005 100.729 5.69552 100.204 5.30568C99.6763 4.91819 99.4114 4.32172 99.4114 3.51782C99.4114 3.07564 99.5025 2.6608 99.681 2.2694C99.8595 1.87878 100.097 1.54246 100.393 1.25653C100.688 0.972939 101.033 0.746376 101.422 0.575675C101.811 0.407709 102.227 0.32373 102.669 0.32373C103.324 0.32373 103.915 0.51826 104.442 0.908097C104.969 1.29989 105.235 1.89636 105.235 2.69596C105.235 3.1397 105.14 3.5561 104.963 3.94672C104.786 4.33734 104.548 4.67366 104.254 4.95959C103.957 5.24357 103.615 5.46935 103.226 5.63849C102.834 5.80919 102.418 5.89005 101.974 5.89005Z" fill="#4D4D4D"/>
<path d="M107.058 8.67391C107.414 8.57001 107.81 8.44501 108.242 8.30908C108.675 8.17314 109.159 8.04658 109.7 7.93252C110.235 7.81495 110.838 7.71963 111.502 7.64581C112.165 7.57042 112.922 7.53369 113.762 7.53369C116.231 7.53369 117.934 8.25283 118.873 9.68679C119.813 11.1208 119.975 13.0832 119.366 15.5707L117.212 24.5549H112.499L114.586 15.7597C114.713 15.2105 114.813 14.6797 114.887 14.1609C114.962 13.6469 114.958 13.1938 114.87 12.8016C114.787 12.4141 114.591 12.0969 114.287 11.8512C113.978 11.6094 113.511 11.4879 112.878 11.4879C112.267 11.4879 111.646 11.5536 111.012 11.6801L107.943 24.5545H103.228L107.058 8.67391Z" fill="#4D4D4D"/>
</g>
<defs>
<clipPath id="clip0_703_781">
<rect width="119.725" height="25" fill="white"/>
</clipPath>
</defs>
</svg>
