<svg width="41" height="25" viewBox="0 0 41 25" fill="none" xmlns="http://www.w3.org/2000/svg">
<g clip-path="url(#clip0_703_806)">
<path d="M25.5479 2.66211H14.6587V22.2256H25.5479V2.66211Z" fill="#FF5A00"/>
<path d="M15.3834 12.4436C15.3834 8.46891 17.2519 4.9412 20.1192 2.66189C18.009 1.00274 15.3471 0 12.4436 0C5.5654 0 0 5.5654 0 12.4436C0 19.3218 5.5654 24.8872 12.4436 24.8872C15.3471 24.8872 18.009 23.8845 20.1192 22.2254C17.2479 19.9783 15.3834 16.4183 15.3834 12.4436Z" fill="#EB001B"/>
<path d="M40.2383 12.4436C40.2383 19.3218 34.6729 24.8872 27.7947 24.8872C24.8912 24.8872 22.2293 23.8845 20.1191 22.2254C23.0227 19.942 24.855 16.4183 24.855 12.4436C24.855 8.46891 22.9864 4.9412 20.1191 2.66189C22.2253 1.00274 24.8872 0 27.7907 0C34.6729 0 40.2383 5.60164 40.2383 12.4436Z" fill="#F79E1B"/>
</g>
<defs>
<clipPath id="clip0_703_806">
<rect width="40.625" height="25" fill="white"/>
</clipPath>
</defs>
</svg>
