<svg width="66" height="30" viewBox="0 0 66 30" fill="none" xmlns="http://www.w3.org/2000/svg">
<g clip-path="url(#clip0_703_778)">
<path d="M39.3056 13.0467H37.6729C37.6394 12.913 37.6144 12.7581 37.5977 12.5821C37.5645 12.2397 37.5645 11.8949 37.5977 11.5524C37.6144 11.3769 37.6394 11.222 37.6729 11.0876H41.7419V23.9723C41.5382 24.0077 41.3328 24.0327 41.1266 24.0472C40.9217 24.0629 40.7163 24.0712 40.5109 24.0721C40.314 24.0709 40.1173 24.0626 39.9211 24.0472C39.7149 24.0326 39.5096 24.0075 39.306 23.9719V13.0461V13.0464L39.3056 13.0467ZM53.4707 16.2869C53.4707 15.8179 53.4079 15.3702 53.2826 14.9428C53.1569 14.5161 52.9721 14.1437 52.73 13.8254C52.4868 13.5075 52.1772 13.2519 51.8004 13.0595C51.4238 12.8669 50.9758 12.7705 50.4567 12.7705C49.4354 12.7705 48.6525 13.0807 48.1085 13.7C47.5643 14.3194 47.2338 15.1816 47.1164 16.2869H53.4709H53.4707ZM47.0914 18.1454C47.1249 19.5518 47.4891 20.5818 48.1839 21.2344C48.8785 21.8874 49.9043 22.2144 51.2606 22.2144C52.449 22.2144 53.5793 22.0047 54.651 21.5862C54.7846 21.8373 54.8933 22.143 54.9772 22.503C55.0594 22.8535 55.1098 23.2107 55.1278 23.5702C54.5756 23.8053 53.9682 23.9803 53.3072 24.0978C52.6454 24.2147 51.913 24.2736 51.1098 24.2736C49.9373 24.2736 48.9325 24.1099 48.0958 23.7837C47.2584 23.4568 46.5677 22.9963 46.0235 22.4022C45.4795 21.808 45.0816 21.1046 44.8305 20.2924C44.5795 19.4806 44.4536 18.5888 44.4536 17.6177C44.4536 16.6633 44.5749 15.7716 44.8178 14.9426C45.0601 14.1142 45.4335 13.3941 45.9352 12.783C46.4378 12.1716 47.0697 11.6862 47.8317 11.3262C48.5932 10.9662 49.4931 10.7859 50.5317 10.7859C51.419 10.7859 52.1975 10.9368 52.8675 11.2381C53.5369 11.5395 54.098 11.954 54.5502 12.4814C55.0022 13.0089 55.3454 13.6368 55.5799 14.3648C55.8141 15.0935 55.9318 15.8845 55.9318 16.7386C55.9318 16.9731 55.9229 17.2199 55.9062 17.4793C55.8925 17.7014 55.8758 17.9232 55.8562 18.1448H47.0908L47.0911 18.1452L47.0914 18.1454ZM58.6708 11.0876C58.8456 11.0559 59.0216 11.0308 59.1983 11.0124C59.3653 10.9961 59.5415 10.9875 59.7257 10.9875C59.9099 10.9875 60.0938 10.9961 60.2783 11.0124C60.4623 11.0295 60.6299 11.0546 60.7807 11.0876C60.8304 11.3389 60.8807 11.6699 60.9308 12.0797C60.981 12.49 61.0065 12.8372 61.0065 13.122C61.358 12.5529 61.8227 12.0586 62.4001 11.6399C62.9779 11.2216 63.7187 11.012 64.6227 11.012C64.7566 11.012 64.8947 11.0165 65.0371 11.0249C65.159 11.0314 65.2808 11.0437 65.4013 11.0622C65.4346 11.2131 65.4603 11.3724 65.4768 11.5396C65.4933 11.7069 65.5017 11.8828 65.5017 12.0669C65.5017 12.268 65.4892 12.4775 65.4642 12.6947C65.44 12.9046 65.4108 13.1139 65.3764 13.3224C65.2407 13.289 65.1015 13.2722 64.9618 13.2723H64.6225C64.1705 13.2723 63.7393 13.3351 63.3291 13.4605C62.9185 13.5863 62.5504 13.8082 62.2239 14.126C61.8977 14.4444 61.6379 14.8798 61.4458 15.4324C61.2528 15.985 61.1568 16.6966 61.1568 17.5671V23.9719C60.9531 24.0073 60.7476 24.0326 60.5413 24.0471C60.3156 24.0639 60.1103 24.072 59.9262 24.072C59.7209 24.0712 59.5156 24.0629 59.3108 24.0471C59.0962 24.0315 58.8825 24.0065 58.6702 23.972V11.0878L58.6708 11.0876ZM41.0437 4.2078C41.0437 4.50842 40.9894 4.80657 40.8834 5.08789C40.602 5.19386 40.3038 5.24818 40.0031 5.24824H39.9994C39.6987 5.24828 39.4005 5.194 39.1191 5.08802C39.0129 4.80665 38.9586 4.50839 38.9586 4.20767V4.20374C38.9586 3.89391 39.0155 3.59719 39.1184 3.32339C39.3999 3.21726 39.6982 3.16298 39.999 3.16317H40.0024C40.3124 3.16317 40.609 3.22003 40.8828 3.32339C40.9889 3.60477 41.0432 3.90303 41.043 4.20374V4.20767H41.0434L41.0437 4.2078ZM44.1126 3.51086H41.679L43.3997 1.79011C43.1291 1.41013 42.7969 1.07805 42.4169 0.807582L40.696 2.52832V0.094656C40.4672 0.0561651 40.2355 0.0367534 40.0035 0.0366211H39.999C39.763 0.0366211 39.5317 0.0567958 39.3064 0.094656V2.52832L37.5852 0.807451C37.3956 0.942369 37.2177 1.09294 37.0533 1.25758L37.0525 1.25837C36.8881 1.42289 36.7377 1.60079 36.6027 1.79025L38.324 3.51086H35.89C35.89 3.51086 35.8321 3.96806 35.8321 4.20439V4.20728C35.8321 4.44361 35.8521 4.67522 35.8901 4.90068H38.3241L36.6026 6.62116C36.8734 7.0011 37.2056 7.33324 37.5855 7.60396L39.3065 5.88335V8.31715C39.5316 8.35487 39.7624 8.37479 39.9983 8.37505H40.0041C40.2359 8.37484 40.4673 8.35547 40.6959 8.31715V5.88335L42.417 7.60435C42.6066 7.46931 42.7846 7.31875 42.9493 7.15422H42.9496C43.114 6.98952 43.2644 6.81149 43.3993 6.62195L41.6786 4.90081H44.1127C44.1504 4.67549 44.1703 4.44466 44.1703 4.20885V4.20282C44.1703 3.97094 44.151 3.73972 44.1127 3.51112V3.51086H44.1126ZM0 23.6208L6.78131 13.0718H0.803581C0.753537 12.7705 0.728515 12.4359 0.728515 12.0674C0.728515 11.7159 0.75393 11.3891 0.804105 11.0875H10.4735L10.5993 11.4146L3.76782 21.9882H10.1721C10.2223 22.3232 10.2476 22.6662 10.2476 23.0177C10.2476 23.353 10.2224 23.671 10.1722 23.9723H0.125764L0 23.6204V23.6208ZM19.565 17.9191C19.3138 17.886 18.9956 17.8528 18.6106 17.8189C18.2255 17.7857 17.899 17.7687 17.6315 17.7687C16.5931 17.7687 15.802 17.9613 15.2582 18.3464C14.7136 18.7319 14.4421 19.3176 14.4421 20.1045C14.4421 20.6068 14.5338 21.0003 14.7181 21.2849C14.902 21.5699 15.1324 21.7871 15.4087 21.9379C15.6852 22.0886 15.9904 22.1808 16.3251 22.2144C16.6598 22.2478 16.9782 22.2644 17.2795 22.2644C17.6646 22.2644 18.0622 22.2434 18.4725 22.2015C18.8826 22.16 19.2468 22.097 19.5651 22.0133V17.9191H19.565ZM19.565 15.4832C19.565 14.4949 19.3138 13.8085 18.8117 13.4233C18.3092 13.0381 17.5809 12.8456 16.6266 12.8456C16.04 12.8456 15.4921 12.8919 14.9815 12.9839C14.4763 13.0746 13.9771 13.1961 13.4868 13.3477C13.1684 12.7951 13.0099 12.1342 13.0099 11.3635C13.5785 11.1796 14.2062 11.0373 14.8931 10.9368C15.5796 10.8362 16.2409 10.7859 16.8774 10.7859C18.5517 10.7859 19.8241 11.1671 20.6949 11.9289C21.5653 12.6914 22.001 13.9093 22.001 15.5834V23.6457C21.4146 23.7796 20.7033 23.9177 19.8662 24.0601C19.0197 24.203 18.1628 24.2744 17.3044 24.2736C16.484 24.2736 15.7428 24.1985 15.0817 24.0478C14.4202 23.8967 13.8592 23.6545 13.3989 23.3191C12.938 22.9845 12.5827 22.5574 12.3312 22.0385C12.0802 21.5194 11.9545 20.8916 11.9545 20.1547C11.9545 19.435 12.101 18.8027 12.3941 18.2583C12.682 17.7204 13.0904 17.2562 13.5872 16.9021C14.0895 16.5426 14.6671 16.2743 15.3202 16.0988C15.9734 15.9229 16.6596 15.8348 17.3796 15.8348C17.9154 15.8348 18.3549 15.8477 18.6983 15.8728C19.0412 15.8977 19.3302 15.9271 19.5647 15.9606V15.4833L19.565 15.4832ZM27.1999 21.8621C27.517 21.9792 27.8453 22.0634 28.1796 22.1133C28.5144 22.1638 28.9493 22.1888 29.4857 22.1888C30.0883 22.1888 30.6406 22.0928 31.1429 21.9002C31.6454 21.708 32.0764 21.4105 32.4364 21.0085C32.7964 20.6068 33.081 20.1006 33.2903 19.4888C33.4995 18.8781 33.6045 18.1541 33.6045 17.3165C33.6045 15.9771 33.3571 14.9139 32.8635 14.1268C32.3692 13.34 31.5613 12.9464 30.4399 12.9464C30.0214 12.9464 29.6192 13.0216 29.2347 13.1726C28.849 13.3232 28.506 13.5493 28.2046 13.8506C27.9033 14.1519 27.6605 14.5332 27.4765 14.9935C27.2917 15.4544 27.2 16.0023 27.2 16.6387V21.8625V21.8622L27.1999 21.8621ZM24.7134 11.0874C24.8838 11.0538 25.0554 11.0288 25.2283 11.0122C25.4079 10.9956 25.5881 10.9872 25.7684 10.9873C25.9353 10.9873 26.111 10.9959 26.2956 11.0122C26.4795 11.0292 26.6553 11.0545 26.823 11.0875C26.8395 11.1216 26.8607 11.2257 26.8859 11.4016C26.9108 11.5776 26.9359 11.7658 26.9612 11.9665C26.9864 12.1676 27.0114 12.3606 27.0365 12.5443C27.0617 12.7287 27.0743 12.846 27.0743 12.8961C27.2413 12.6285 27.4424 12.3687 27.6769 12.1176C27.9114 11.8663 28.1921 11.6403 28.5186 11.4396C28.8451 11.2385 29.2132 11.0796 29.6236 10.9623C30.0337 10.8451 30.49 10.7861 30.9924 10.7861C31.7456 10.7861 32.4448 10.9118 33.0897 11.1631C33.734 11.4146 34.2862 11.8033 34.7469 12.3309C35.2072 12.8584 35.567 13.5282 35.8268 14.3401C36.0862 15.1528 36.2159 16.1112 36.2159 17.2161C36.2159 19.4262 35.6172 21.1554 34.4198 22.4026C33.2224 23.6502 31.5276 24.2736 29.3342 24.2736C28.9657 24.2736 28.5892 24.2485 28.2041 24.1983C27.8186 24.1478 27.4841 24.0808 27.1993 23.9974V29.8997C26.9871 29.9342 26.7735 29.9594 26.5592 29.975C26.3329 29.9914 26.1276 29.9999 25.9434 29.9999C25.7382 29.9991 25.533 29.9908 25.3283 29.975C25.122 29.9604 24.9167 29.9353 24.7131 29.8997V11.0875L24.7134 11.0874Z" fill="#FF4A00"/>
</g>
<defs>
<clipPath id="clip0_703_778">
<rect width="65.5022" height="30" fill="white"/>
</clipPath>
</defs>
</svg>
