<svg width="149" height="50" viewBox="0 0 149 50" fill="none" xmlns="http://www.w3.org/2000/svg">
<g clip-path="url(#clip0_1334_288)">
<path d="M137.135 0.00016187H11.8721C11.4155 0.00016187 10.9644 0.00016187 10.509 0.00265217C10.1278 0.00514248 9.74965 0.0123768 9.36479 0.0184656C8.52869 0.0283046 7.69455 0.101861 6.86963 0.238496C6.04587 0.378106 5.24791 0.64131 4.50274 1.01921C3.75849 1.4003 3.07845 1.89549 2.48728 2.48682C1.89301 3.07648 1.39764 3.75805 1.02022 4.50532C0.641752 5.25111 0.379324 6.05028 0.241995 6.87525C0.103361 7.69917 0.028761 8.53259 0.0188641 9.36804C0.00730904 9.7498 0.0060888 10.1328 0 10.5147V39.2954C0.0060888 39.682 0.00730904 40.0566 0.0188641 40.4433C0.028764 41.2787 0.103364 42.1121 0.241995 42.936C0.378945 43.7614 0.641388 44.5611 1.02022 45.3071C1.39747 46.052 1.89291 46.7308 2.48728 47.3172C3.0762 47.9112 3.75669 48.4067 4.50274 48.7849C5.2479 49.1638 6.04578 49.4285 6.86963 49.5703C7.69469 49.7058 8.52874 49.7794 9.36479 49.7904C9.74965 49.7989 10.1278 49.8038 10.509 49.8038C10.9644 49.8063 11.4156 49.8063 11.8721 49.8063H137.135C137.582 49.8063 138.037 49.8063 138.484 49.8038C138.864 49.8038 139.253 49.7989 139.632 49.7904C140.467 49.78 141.299 49.7064 142.123 49.5703C142.949 49.4275 143.75 49.1628 144.499 48.7849C145.244 48.4065 145.924 47.9109 146.512 47.3172C147.105 46.7285 147.602 46.0502 147.983 45.3071C148.359 44.5605 148.619 43.761 148.754 42.936C148.893 42.112 148.97 41.2788 148.985 40.4433C148.99 40.0566 148.99 39.682 148.99 39.2954C149 38.8431 149 38.3932 149 37.9335V11.8741C149 11.4181 149 10.9658 148.99 10.5147C148.99 10.1328 148.99 9.7498 148.985 9.36799C148.97 8.53247 148.893 7.69923 148.754 6.8752C148.619 6.05071 148.359 5.2516 147.983 4.50527C147.215 3.00745 145.996 1.78823 144.499 1.01909C143.75 0.642122 142.949 0.378988 142.123 0.238384C141.299 0.101147 140.467 0.0275649 139.632 0.0182913C139.253 0.0122149 138.864 0.00491835 138.484 0.0024903C138.037 0 137.582 0 137.135 0V0.00016187Z" fill="black"/>
<path d="M10.515 48.7164C10.1356 48.7164 9.7654 48.7116 9.38901 48.7031C8.60927 48.693 7.83135 48.6251 7.06164 48.5C6.34392 48.3764 5.64865 48.1465 4.99875 47.8178C4.35481 47.4919 3.76748 47.0645 3.25927 46.552C2.7437 46.0456 2.31447 45.4582 1.98858 44.8131C1.6591 44.1639 1.43108 43.468 1.31246 42.7497C1.18437 41.9778 1.11506 41.1973 1.10514 40.415C1.09725 40.1524 1.08691 39.2781 1.08691 39.2781V10.5143C1.08691 10.5143 1.09792 9.65343 1.10521 9.4005C1.1147 8.61939 1.1836 7.84014 1.31132 7.06949C1.43015 6.34919 1.65835 5.65128 1.98801 4.99992C2.3127 4.35532 2.73955 3.7675 3.25201 3.25926C3.7639 2.74618 4.3531 2.31658 4.99814 1.98613C5.64654 1.65851 6.34051 1.43019 7.05677 1.30884C7.82901 1.18254 8.60963 1.11425 9.39207 1.10456L10.5156 1.08936H138.478L139.615 1.10517C140.39 1.11438 141.164 1.18206 141.929 1.30762C142.653 1.4305 143.354 1.6604 144.01 1.98977C145.302 2.65574 146.353 3.70936 147.017 5.00296C147.341 5.64982 147.566 6.34204 147.683 7.05611C147.812 7.83309 147.885 8.61847 147.899 9.40598C147.903 9.7586 147.903 10.1374 147.903 10.5143C147.913 10.9813 147.913 11.4257 147.913 11.8738V37.9332C147.913 38.3855 147.913 38.8269 147.903 39.272C147.903 39.6769 147.903 40.0478 147.898 40.4296C147.884 41.203 147.813 41.9744 147.685 42.7375C147.569 43.461 147.342 44.1623 147.013 44.8169C146.685 45.4549 146.258 46.0372 145.748 46.5423C145.24 47.0575 144.651 47.4874 144.006 47.8154C143.352 48.1466 142.652 48.3774 141.929 48.5C141.159 48.6257 140.381 48.6936 139.602 48.7031C139.237 48.7116 138.855 48.7164 138.484 48.7164L137.134 48.7189L10.515 48.7164Z" fill="black"/>
<path d="M30.8409 25.2774C30.8543 24.2381 31.1304 23.2191 31.6434 22.3151C32.1564 21.4112 32.8898 20.6518 33.7752 20.1074C33.2127 19.3041 32.4707 18.643 31.608 18.1766C30.7453 17.7102 29.7858 17.4514 28.8056 17.4208C26.7147 17.2013 24.6876 18.6719 23.6222 18.6719C22.536 18.6719 20.8956 17.4426 19.129 17.4789C17.9864 17.5158 16.8728 17.8481 15.8967 18.4433C14.9207 19.0386 14.1155 19.8765 13.5596 20.8755C11.1514 25.0448 12.9477 31.1723 15.2545 34.5424C16.4086 36.1927 17.7574 38.0361 19.5224 37.9707C21.2495 37.8991 21.8945 36.8694 23.9793 36.8694C26.0447 36.8694 26.6499 37.9707 28.4506 37.9291C30.3039 37.899 31.4715 36.2715 32.5852 34.6056C33.4144 33.4298 34.0525 32.1302 34.4758 30.755C33.3991 30.2996 32.4803 29.5373 31.8339 28.5633C31.1875 27.5892 30.8422 26.4464 30.8409 25.2774Z" fill="white"/>
<path d="M27.4394 15.2048C28.4499 13.9917 28.9477 12.4326 28.8272 10.8584C27.2834 11.0205 25.8574 11.7584 24.8333 12.9249C24.3325 13.4947 23.949 14.1577 23.7047 14.8759C23.4603 15.594 23.3599 16.3533 23.4092 17.1103C24.1813 17.1183 24.9452 16.9509 25.6433 16.6208C26.3415 16.2907 26.9556 15.8066 27.4394 15.2048Z" fill="white"/>
<path d="M52.6728 33.7933H46.779L45.3636 37.9726H42.8672L48.4497 22.5103H51.0434L56.6259 37.9726H54.0869L52.6728 33.7933ZM47.3894 31.8647H52.0612L49.7581 25.0821H49.6937L47.3894 31.8647Z" fill="white"/>
<path d="M68.6816 32.3364C68.6816 35.8396 66.8066 38.0903 63.977 38.0903C63.2602 38.1278 62.5474 37.9627 61.9201 37.6139C61.2928 37.2651 60.7764 36.7467 60.43 36.118H60.3765V41.7017H58.0625V26.6991H60.3024V28.5742H60.3449C60.7072 27.9485 61.2323 27.4328 61.8644 27.0818C62.4965 26.7309 63.2119 26.5579 63.9345 26.5812C66.7956 26.5812 68.6816 28.8429 68.6816 32.3364ZM66.3032 32.3364C66.3032 30.054 65.1237 28.5535 63.324 28.5535C61.556 28.5535 60.3668 30.0856 60.3668 32.3364C60.3668 34.6078 61.556 36.129 63.324 36.129C65.1237 36.129 66.3032 34.6394 66.3032 32.3364Z" fill="white"/>
<path d="M81.0893 32.3364C81.0893 35.8396 79.2143 38.0903 76.3847 38.0903C75.6679 38.1278 74.9551 37.9627 74.3278 37.6139C73.7005 37.2651 73.1841 36.7467 72.8377 36.118H72.7842V41.7017H70.4702V26.6991H72.71V28.5741H72.7526C73.1149 27.9485 73.64 27.4328 74.2721 27.0818C74.9041 26.7309 75.6195 26.5579 76.3421 26.5812C79.2033 26.5812 81.0893 28.8429 81.0893 32.3364ZM78.7109 32.3364C78.7109 30.054 77.5314 28.5535 75.7317 28.5535C73.9637 28.5535 72.7745 30.0856 72.7745 32.3364C72.7745 34.6078 73.9637 36.129 75.7317 36.129C77.5314 36.129 78.7109 34.6394 78.7109 32.3364H78.7109Z" fill="white"/>
<path d="M89.2901 33.6644C89.4616 35.1977 90.9512 36.2045 92.9867 36.2045C94.9371 36.2045 96.3403 35.1977 96.3403 33.8151C96.3403 32.6149 95.494 31.8963 93.4901 31.4038L91.4862 30.9211C88.6469 30.2353 87.3288 28.9074 87.3288 26.7527C87.3288 24.0849 89.6537 22.2524 92.9551 22.2524C96.2223 22.2524 98.4622 24.0849 98.5376 26.7527H96.2017C96.0618 25.2097 94.7863 24.2783 92.9222 24.2783C91.0581 24.2783 89.7826 25.2206 89.7826 26.5922C89.7826 27.6854 90.5973 28.3286 92.5902 28.8211L94.2938 29.2394C97.4663 29.9896 98.7844 31.264 98.7844 33.5257C98.7844 36.4184 96.4801 38.2302 92.8152 38.2302C89.3862 38.2302 87.071 36.461 86.9214 33.6643L89.2901 33.6644Z" fill="white"/>
<path d="M103.779 24.0312V26.6991H105.923V28.5316H103.779V34.7464C103.779 35.7118 104.208 36.1618 105.151 36.1618C105.405 36.1573 105.659 36.1394 105.912 36.1082V37.9297C105.488 38.0089 105.057 38.0448 104.627 38.0367C102.344 38.0367 101.454 37.1795 101.454 34.9932V28.5316H99.8149V26.6991H101.454V24.0312H103.779Z" fill="white"/>
<path d="M107.164 32.3364C107.164 28.7894 109.253 26.5605 112.511 26.5605C115.779 26.5605 117.859 28.7894 117.859 32.3364C117.859 35.8931 115.79 38.1122 112.511 38.1122C109.232 38.1122 107.164 35.8931 107.164 32.3364ZM115.501 32.3364C115.501 29.9032 114.386 28.4672 112.511 28.4672C110.636 28.4672 109.522 29.9142 109.522 32.3364C109.522 34.7793 110.636 36.2044 112.511 36.2044C114.386 36.2044 115.501 34.7793 115.501 32.3364H115.501Z" fill="white"/>
<path d="M119.767 26.699H121.974V28.6178H122.027C122.176 28.0185 122.528 27.4889 123.021 27.118C123.515 26.7471 124.122 26.5575 124.739 26.5811C125.005 26.5801 125.271 26.6091 125.532 26.6674V28.8318C125.195 28.729 124.844 28.6817 124.492 28.692C124.156 28.6784 123.821 28.7376 123.509 28.8657C123.198 28.9938 122.919 29.1878 122.69 29.4342C122.461 29.6806 122.287 29.9736 122.182 30.2932C122.077 30.6128 122.043 30.9514 122.081 31.2856V37.9723H119.767L119.767 26.699Z" fill="white"/>
<path d="M136.2 34.6613C135.889 36.7078 133.896 38.1122 131.346 38.1122C128.067 38.1122 126.031 35.915 126.031 32.3899C126.031 28.8539 128.078 26.5605 131.249 26.5605C134.368 26.5605 136.329 28.7031 136.329 32.1212V32.914H128.367V33.0538C128.33 33.4687 128.382 33.8867 128.52 34.2799C128.657 34.6732 128.876 35.0328 129.163 35.3348C129.45 35.6368 129.797 35.8743 130.183 36.0316C130.569 36.1889 130.984 36.2623 131.4 36.2469C131.947 36.2982 132.495 36.1715 132.964 35.8858C133.433 35.6002 133.798 35.1707 134.003 34.6613L136.2 34.6613ZM128.378 31.2967H134.014C134.035 30.9237 133.978 30.5504 133.848 30.2002C133.718 29.8501 133.516 29.5307 133.257 29.262C132.997 28.9933 132.685 28.7812 132.339 28.639C131.994 28.4968 131.623 28.4275 131.249 28.4356C130.872 28.4333 130.499 28.5057 130.15 28.6486C129.801 28.7915 129.484 29.002 129.217 29.268C128.95 29.534 128.739 29.8502 128.595 30.1984C128.451 30.5466 128.377 30.9199 128.378 31.2968V31.2967Z" fill="white"/>
<path d="M47.0997 10.8717C47.5848 10.8369 48.0716 10.9102 48.525 11.0863C48.9783 11.2624 49.387 11.5369 49.7214 11.8901C50.0558 12.2432 50.3077 12.6662 50.4589 13.1285C50.6101 13.5908 50.6567 14.0809 50.5956 14.5634C50.5956 16.937 49.3127 18.3013 47.0997 18.3013H44.416V10.8717H47.0997ZM45.57 17.2506H46.9708C47.3174 17.2713 47.6643 17.2145 47.9862 17.0842C48.3082 16.954 48.597 16.7536 48.8317 16.4976C49.0664 16.2417 49.2411 15.9366 49.343 15.6046C49.4449 15.2726 49.4716 14.9221 49.4209 14.5785C49.4679 14.2363 49.4386 13.888 49.3351 13.5584C49.2316 13.2289 49.0565 12.9263 48.8223 12.6724C48.5881 12.4184 48.3007 12.2195 47.9806 12.0897C47.6605 11.9599 47.3156 11.9025 46.9708 11.9216H45.57V17.2506Z" fill="white"/>
<path d="M51.8997 15.4951C51.8645 15.1266 51.9066 14.7549 52.0235 14.4036C52.1403 14.0524 52.3293 13.7295 52.5782 13.4556C52.8272 13.1817 53.1306 12.9628 53.4691 12.8131C53.8076 12.6633 54.1737 12.5859 54.5438 12.5859C54.914 12.5859 55.28 12.6633 55.6185 12.8131C55.957 12.9628 56.2605 13.1817 56.5095 13.4556C56.7584 13.7295 56.9474 14.0524 57.0642 14.4036C57.1811 14.7549 57.2232 15.1266 57.188 15.4951C57.2239 15.8639 57.1822 16.2362 57.0657 16.588C56.9492 16.9398 56.7603 17.2633 56.5113 17.5377C56.2623 17.8122 55.9586 18.0315 55.6197 18.1816C55.2809 18.3317 54.9144 18.4092 54.5438 18.4092C54.1733 18.4092 53.8068 18.3317 53.4679 18.1816C53.1291 18.0315 52.8254 17.8122 52.5764 17.5377C52.3274 17.2633 52.1385 16.9398 52.022 16.588C51.9054 16.2362 51.8638 15.8639 51.8997 15.4951ZM56.0498 15.4951C56.0498 14.2797 55.5038 13.569 54.5457 13.569C53.5838 13.569 53.0428 14.2797 53.0428 15.4951C53.0428 16.7202 53.5839 17.4254 54.5457 17.4254C55.5039 17.4254 56.0498 16.7153 56.0498 15.4951H56.0498Z" fill="white"/>
<path d="M64.2169 18.3012H63.0691L61.9103 14.1717H61.8227L60.6688 18.3012H59.5318L57.9863 12.6943H59.1087L60.1131 16.9727H60.1958L61.3485 12.6943H62.41L63.5628 16.9727H63.6503L64.6498 12.6943H65.7564L64.2169 18.3012Z" fill="white"/>
<path d="M67.0557 12.6943H68.1209V13.585H68.2035C68.3438 13.2651 68.5804 12.9969 68.8803 12.8179C69.1802 12.6388 69.5286 12.5578 69.8767 12.5861C70.1495 12.5656 70.4235 12.6067 70.6782 12.7064C70.933 12.8062 71.162 12.9619 71.3484 13.1622C71.5348 13.3625 71.6737 13.6021 71.7549 13.8634C71.8361 14.1247 71.8574 14.4008 71.8174 14.6715V18.3011H70.7109V14.9493C70.7109 14.0483 70.3193 13.6002 69.501 13.6002C69.3158 13.5916 69.1309 13.6231 68.9589 13.6926C68.787 13.7621 68.6322 13.868 68.5051 14.003C68.3779 14.1379 68.2814 14.2988 68.2222 14.4745C68.1631 14.6502 68.1426 14.8367 68.1622 15.0211V18.3011H67.0557L67.0557 12.6943Z" fill="white"/>
<path d="M73.5806 10.5054H74.6871V18.3009H73.5806V10.5054Z" fill="white"/>
<path d="M76.2263 15.4952C76.1911 15.1267 76.2333 14.7549 76.3502 14.4037C76.467 14.0525 76.656 13.7295 76.905 13.4556C77.154 13.1817 77.4575 12.9628 77.796 12.8131C78.1345 12.6633 78.5006 12.5859 78.8708 12.5859C79.2409 12.5859 79.607 12.6633 79.9455 12.8131C80.2841 12.9628 80.5875 13.1817 80.8365 13.4556C81.0855 13.7295 81.2745 14.0525 81.3914 14.4037C81.5082 14.7549 81.5504 15.1267 81.5152 15.4952C81.5511 15.864 81.5094 16.2363 81.3928 16.5881C81.2762 16.9399 81.0874 17.2634 80.8383 17.5378C80.5893 17.8123 80.2856 18.0316 79.9467 18.1817C79.6079 18.3317 79.2414 18.4093 78.8708 18.4093C78.5002 18.4093 78.1337 18.3317 77.7948 18.1817C77.456 18.0316 77.1523 17.8123 76.9032 17.5378C76.6542 17.2634 76.4653 16.9399 76.3487 16.5881C76.2322 16.2363 76.1905 15.864 76.2263 15.4952ZM80.3764 15.4952C80.3764 14.2798 79.8305 13.5691 78.8723 13.5691C77.9105 13.5691 77.3694 14.2798 77.3694 15.4952C77.3694 16.7203 77.9105 17.4255 78.8723 17.4255C79.8305 17.4255 80.3764 16.7154 80.3764 15.4952H80.3764Z" fill="white"/>
<path d="M82.6792 16.7154C82.6792 15.7061 83.4307 15.1243 84.7646 15.0416L86.2833 14.954V14.4701C86.2833 13.8779 85.8918 13.5435 85.1355 13.5435C84.5177 13.5435 84.0897 13.7703 83.9669 14.1667H82.8956C83.0087 13.2036 83.9146 12.5859 85.1865 12.5859C86.5922 12.5859 87.385 13.2857 87.385 14.4701V18.301H86.3198V17.513H86.2323C86.0546 17.7957 85.805 18.0261 85.5091 18.1808C85.2133 18.3354 84.8816 18.4088 84.5481 18.3934C84.3128 18.4178 84.0749 18.3927 83.8498 18.3196C83.6247 18.2466 83.4175 18.1271 83.2414 17.969C83.0653 17.8109 82.9243 17.6177 82.8275 17.4018C82.7306 17.1858 82.6801 16.952 82.6792 16.7154ZM86.2833 16.2363V15.7675L84.9142 15.8551C84.142 15.9067 83.7918 16.1694 83.7918 16.6637C83.7918 17.1683 84.2295 17.462 84.8315 17.462C85.0079 17.4798 85.186 17.462 85.3554 17.4096C85.5247 17.3572 85.6818 17.2712 85.8173 17.1569C85.9527 17.0425 86.0638 16.9021 86.1438 16.7439C86.2239 16.5858 86.2714 16.4131 86.2833 16.2363Z" fill="white"/>
<path d="M88.8394 15.4951C88.8394 13.7235 89.7501 12.6011 91.1667 12.6011C91.5171 12.585 91.8649 12.6689 92.1694 12.8431C92.4738 13.0173 92.7224 13.2745 92.8861 13.5848H92.9688V10.5054H94.0753V18.3009H93.015V17.4151H92.9275C92.7511 17.7233 92.4939 17.9773 92.1835 18.1498C91.8732 18.3222 91.5215 18.4064 91.1667 18.3933C89.7404 18.3934 88.8394 17.271 88.8394 15.4951ZM89.9824 15.4951C89.9824 16.6843 90.543 17.3999 91.4805 17.3999C92.4131 17.3999 92.9895 16.674 92.9895 15.5C92.9895 14.3314 92.4071 13.5952 91.4805 13.5952C90.549 13.5952 89.9824 14.3156 89.9824 15.4951H89.9824Z" fill="white"/>
<path d="M98.6536 15.4951C98.6184 15.1266 98.6605 14.7549 98.7774 14.4036C98.8942 14.0524 99.0832 13.7295 99.3321 13.4556C99.5811 13.1817 99.8845 12.9628 100.223 12.8131C100.562 12.6633 100.928 12.5859 101.298 12.5859C101.668 12.5859 102.034 12.6633 102.372 12.8131C102.711 12.9628 103.014 13.1817 103.263 13.4556C103.512 13.7295 103.701 14.0524 103.818 14.4036C103.935 14.7549 103.977 15.1266 103.942 15.4951C103.978 15.8639 103.936 16.2362 103.82 16.588C103.703 16.9398 103.514 17.2633 103.265 17.5377C103.016 17.8122 102.712 18.0315 102.374 18.1816C102.035 18.3317 101.668 18.4092 101.298 18.4092C100.927 18.4092 100.561 18.3317 100.222 18.1816C99.883 18.0315 99.5793 17.8122 99.3303 17.5377C99.0813 17.2633 98.8924 16.9398 98.7759 16.588C98.6593 16.2362 98.6177 15.8639 98.6536 15.4951ZM102.804 15.4951C102.804 14.2797 102.258 13.569 101.3 13.569C100.338 13.569 99.7967 14.2797 99.7967 15.4951C99.7967 16.7202 100.338 17.4254 101.3 17.4254C102.258 17.4254 102.804 16.7153 102.804 15.4951Z" fill="white"/>
<path d="M105.427 12.6943H106.492V13.585H106.575C106.715 13.2651 106.951 12.9969 107.251 12.8179C107.551 12.6388 107.9 12.5578 108.248 12.5861C108.521 12.5656 108.795 12.6067 109.049 12.7064C109.304 12.8062 109.533 12.9619 109.719 13.1622C109.906 13.3625 110.045 13.6021 110.126 13.8634C110.207 14.1247 110.229 14.4008 110.188 14.6715V18.3011H109.082V14.9493C109.082 14.0483 108.69 13.6002 107.872 13.6002C107.687 13.5916 107.502 13.6231 107.33 13.6926C107.158 13.7621 107.003 13.868 106.876 14.003C106.749 14.1379 106.653 14.2988 106.593 14.4745C106.534 14.6502 106.514 14.8367 106.533 15.0211V18.3011H105.427V12.6943Z" fill="white"/>
<path d="M116.441 11.2983V12.7198H117.655V13.6519H116.441V16.5349C116.441 17.1222 116.683 17.3794 117.234 17.3794C117.375 17.379 117.515 17.3704 117.655 17.3539V18.2756C117.457 18.3111 117.255 18.33 117.054 18.3321C115.823 18.3321 115.333 17.8992 115.333 16.8182V13.6518H114.443V12.7198H115.333V11.2983H116.441Z" fill="white"/>
<path d="M119.167 10.5054H120.264V13.5952H120.352C120.499 13.2723 120.742 13.0026 121.048 12.8228C121.354 12.6431 121.708 12.5621 122.061 12.5908C122.333 12.576 122.604 12.6213 122.856 12.7235C123.108 12.8256 123.334 12.9821 123.519 13.1817C123.703 13.3814 123.841 13.6193 123.923 13.8784C124.005 14.1376 124.029 14.4116 123.992 14.681V18.301H122.885V14.954C122.885 14.0584 122.468 13.6049 121.686 13.6049C121.496 13.5893 121.304 13.6154 121.125 13.6815C120.946 13.7475 120.784 13.8519 120.649 13.9873C120.515 14.1227 120.412 14.2858 120.347 14.4653C120.282 14.6448 120.257 14.8363 120.274 15.0263V18.3009H119.168L119.167 10.5054Z" fill="white"/>
<path d="M130.444 16.7872C130.293 17.2996 129.968 17.7429 129.524 18.0394C129.079 18.3359 128.545 18.4669 128.014 18.4093C127.645 18.419 127.278 18.3483 126.939 18.202C126.599 18.0556 126.296 17.8372 126.049 17.5618C125.803 17.2865 125.619 16.9608 125.511 16.6074C125.404 16.254 125.374 15.8814 125.424 15.5153C125.375 15.1481 125.405 14.7747 125.513 14.4202C125.621 14.0657 125.803 13.7386 126.048 13.4608C126.294 13.183 126.596 12.9612 126.934 12.8103C127.272 12.6593 127.639 12.5829 128.009 12.586C129.57 12.586 130.511 13.6519 130.511 15.4125V15.7986H126.551V15.8606C126.534 16.0664 126.56 16.2735 126.627 16.4687C126.695 16.6639 126.802 16.8428 126.943 16.994C127.083 17.1453 127.254 17.2654 127.444 17.3469C127.634 17.4283 127.838 17.4692 128.045 17.4669C128.309 17.4987 128.578 17.451 128.815 17.33C129.053 17.2089 129.249 17.02 129.379 16.7872L130.444 16.7872ZM126.551 14.9803H129.383C129.397 14.7921 129.372 14.6031 129.308 14.4254C129.245 14.2477 129.145 14.0852 129.015 13.9484C128.885 13.8116 128.728 13.7035 128.554 13.6311C128.379 13.5587 128.192 13.5235 128.003 13.5278C127.812 13.5254 127.622 13.5613 127.445 13.6335C127.267 13.7056 127.106 13.8125 126.971 13.9479C126.836 14.0833 126.729 14.2443 126.657 14.4217C126.585 14.599 126.549 14.7889 126.551 14.9803H126.551Z" fill="white"/>
</g>
<defs>
<clipPath id="clip0_1334_288">
<rect width="149" height="49.8061" fill="white"/>
</clipPath>
</defs>
</svg>
