<svg width="26" height="25" viewBox="0 0 26 25" fill="none" xmlns="http://www.w3.org/2000/svg">
<path d="M10.0159 24.9377C8.74408 24.9377 7.63119 24.6992 6.67729 24.2222C5.72339 23.7453 4.95119 23.0753 4.36068 22.2122L3.88373 24.5288H0V0H4.36068V10.05C4.90577 9.30052 5.62119 8.64187 6.50696 8.07408C7.41543 7.50628 8.58509 7.22238 10.0159 7.22238C11.6058 7.22238 13.0253 7.60848 14.2744 8.38069C15.5236 9.15289 16.5115 10.209 17.2383 11.549C17.9651 12.889 18.3285 14.4107 18.3285 16.1141C18.3285 17.8175 17.9651 19.3392 17.2383 20.6792C16.5115 21.9965 15.5236 23.0412 14.2744 23.8134C13.0253 24.5629 11.6058 24.9377 10.0159 24.9377ZM9.09611 21.1221C10.4815 21.1221 11.6285 20.6565 12.537 19.7253C13.4454 18.7941 13.8997 17.5904 13.8997 16.1141C13.8997 14.6378 13.4454 13.4227 12.537 12.4688C11.6285 11.5149 10.4815 11.038 9.09611 11.038C7.68797 11.038 6.52967 11.5149 5.62119 12.4688C4.73543 13.4 4.29255 14.6037 4.29255 16.08C4.29255 17.5563 4.73543 18.7714 5.62119 19.7253C6.52967 20.6565 7.68797 21.1221 9.09611 21.1221Z" fill="white"/>
<path d="M23.0756 24.7673C22.2807 24.7673 21.6221 24.5175 21.0997 24.0178C20.6 23.5182 20.3502 22.9163 20.3502 22.2122C20.3502 21.4854 20.6 20.8722 21.0997 20.3726C21.6221 19.8729 22.2807 19.6231 23.0756 19.6231C23.8705 19.6231 24.5178 19.8729 25.0175 20.3726C25.5399 20.8722 25.8011 21.4854 25.8011 22.2122C25.8011 22.9163 25.5399 23.5182 25.0175 24.0178C24.5178 24.5175 23.8705 24.7673 23.0756 24.7673Z" fill="white"/>
</svg>
