<svg width="169" height="50" viewBox="0 0 169 50" fill="none" xmlns="http://www.w3.org/2000/svg">
<g clip-path="url(#clip0_1334_323)">
<path fill-rule="evenodd" clip-rule="evenodd" d="M162.498 50H6.2523C2.80639 50 0 47.182 0 43.75V6.25C0 2.80549 2.80639 0 6.2523 0H162.498C165.941 0 168.75 2.80549 168.75 6.25V43.75C168.75 47.182 165.941 50 162.498 50Z" fill="black"/>
<path fill-rule="evenodd" clip-rule="evenodd" d="M162.498 1.00062C165.388 1.00062 167.753 3.36035 167.753 6.25V43.75C167.753 46.6397 165.403 48.9994 162.498 48.9994H6.2523C3.36209 48.9994 0.996518 46.6397 0.996518 43.75V6.25C0.996518 3.36035 3.34656 1.00062 6.2523 1.00062H162.498ZM162.498 0H6.2523C2.80639 0 0 2.81796 0 6.25V43.75C0 47.1945 2.80639 50 6.2523 50H162.498C165.941 50 168.75 47.1945 168.75 43.75V6.25C168.75 2.81796 165.941 0 162.498 0Z" fill="black"/>
<path d="M88.898 16.5399C87.7711 16.5399 86.8211 16.1441 86.0698 15.3648C85.3248 14.6073 84.9088 13.563 84.9274 12.4969C84.9274 11.3592 85.3124 10.3959 86.0698 9.63222C86.818 8.85292 87.768 8.45703 88.8949 8.45703C90.0093 8.45703 90.9593 8.85292 91.723 9.63222C92.4804 10.4209 92.8654 11.3841 92.8654 12.4969C92.853 13.6378 92.468 14.601 91.723 15.3616C90.9748 16.1472 90.0249 16.5399 88.898 16.5399ZM55.3673 16.5399C54.2653 16.5399 53.3091 16.1503 52.5268 15.3803C51.7507 14.6135 51.3564 13.6441 51.3564 12.5C51.3564 11.356 51.7507 10.3866 52.5268 9.61975C53.2936 8.8498 54.2497 8.46015 55.3673 8.46015C55.9137 8.46015 56.4446 8.56925 56.9537 8.79057C57.4535 9.00566 57.8602 9.29868 58.1613 9.65716L58.2358 9.74756L57.3945 10.5767L57.3076 10.4739C56.8326 9.90653 56.1962 9.6291 55.3549 9.6291C54.6036 9.6291 53.9486 9.89718 53.4085 10.4271C52.8652 10.9601 52.5889 11.6584 52.5889 12.5032C52.5889 13.3479 52.8652 14.0462 53.4085 14.5792C53.9486 15.1092 54.6036 15.3772 55.3549 15.3772C56.1558 15.3772 56.8295 15.1092 57.3541 14.5792C57.6646 14.2675 57.8571 13.8311 57.9254 13.2794H55.2276V12.1135H59.0833L59.0988 12.2195C59.1268 12.4159 59.1547 12.6185 59.1547 12.8055C59.1547 13.881 58.8318 14.7507 58.1923 15.3928C57.4659 16.1534 56.516 16.5399 55.3673 16.5399ZM99.9496 16.3747H98.7606L95.1192 10.5237L95.1502 11.5774V16.3716H93.9612V8.62536H95.3179L95.3551 8.68459L98.7793 14.1958L98.7482 13.1453V8.62536H99.9496V16.3747ZM79.9635 16.3747H78.759V9.7912H76.6697V8.62536H82.0496V9.7912H79.9604V16.3747H79.9635ZM75.6887 16.3747H74.4873V8.62536H75.6887V16.3747ZM68.9367 16.3747H67.7353V9.7912H65.646V8.62536H71.0259V9.7912H68.9367V16.3747ZM64.8854 16.3623H60.2785V8.62536H64.8854V9.7912H61.483V11.9171H64.5532V13.0705H61.483V15.1964H64.8854V16.3623ZM86.9515 14.5636C87.4886 15.1029 88.1405 15.3741 88.898 15.3741C89.6772 15.3741 90.3136 15.1092 90.8444 14.5636C91.3722 14.0337 91.6391 13.3386 91.6391 12.5C91.6391 11.6615 91.3722 10.9633 90.8475 10.4365C90.3105 9.89718 89.6554 9.62598 88.9011 9.62598C88.1219 9.62598 87.4855 9.89095 86.9577 10.4365C86.43 10.9664 86.163 11.6615 86.163 12.5C86.163 13.3386 86.4268 14.0368 86.9515 14.5636Z" fill="white"/>
<path fill-rule="evenodd" clip-rule="evenodd" d="M84.816 27.1945C81.8823 27.1945 79.5043 29.4296 79.5043 32.5125C79.5043 35.5673 81.8979 37.8304 84.816 37.8304C87.7497 37.8304 90.1277 35.5798 90.1277 32.5125C90.1277 29.4296 87.7497 27.1945 84.816 27.1945ZM84.816 35.7232C83.211 35.7232 81.8296 34.389 81.8296 32.5C81.8296 30.5829 83.2141 29.2768 84.816 29.2768C86.421 29.2768 87.8025 30.5829 87.8025 32.5C87.8056 34.4015 86.421 35.7232 84.816 35.7232ZM73.2272 27.1945C70.2935 27.1945 67.9155 29.4296 67.9155 32.5125C67.9155 35.5673 70.309 37.8304 73.2272 37.8304C76.1609 37.8304 78.5389 35.5798 78.5389 32.5125C78.5389 29.4296 76.1578 27.1945 73.2272 27.1945ZM73.2272 35.7232C71.6222 35.7232 70.2408 34.389 70.2408 32.5C70.2408 30.5829 71.6253 29.2768 73.2272 29.2768C74.8322 29.2768 76.2137 30.5829 76.2137 32.5C76.2137 34.4015 74.8322 35.7232 73.2272 35.7232ZM59.4374 28.8186V31.0692H64.8173C64.6528 32.3317 64.2368 33.2637 63.6004 33.9027C62.8119 34.6945 61.5949 35.5549 59.4498 35.5549C56.1436 35.5549 53.5576 32.8741 53.5576 29.5542C53.5576 26.2344 56.1436 23.5536 59.4498 23.5536C61.2348 23.5536 62.5356 24.2612 63.501 25.1652L65.0905 23.5692C63.7494 22.2787 61.9644 21.2905 59.4622 21.2905C54.9266 21.2905 51.1206 25 51.1206 29.5418C51.1206 34.096 54.9235 37.793 59.4622 37.793C61.9116 37.793 63.7494 36.9888 65.2023 35.4738C66.6831 33.9869 67.1519 31.889 67.1519 30.1964C67.1519 29.6696 67.1115 29.1958 67.0277 28.7936H59.4343C59.4374 28.7905 59.4374 28.8186 59.4374 28.8186ZM115.842 30.5705C115.398 29.3766 114.057 27.182 111.306 27.182C108.58 27.182 106.314 29.336 106.314 32.5C106.314 35.4863 108.556 37.818 111.57 37.818C113.991 37.818 115.401 36.331 115.981 35.4582L114.184 34.2488C113.588 35.1372 112.759 35.7201 111.582 35.7201C110.393 35.7201 109.561 35.1777 109.009 34.1085L116.09 31.1627C116.09 31.1658 115.842 30.5705 115.842 30.5705ZM108.621 32.3473C108.565 30.293 110.21 29.2488 111.387 29.2488C112.315 29.2488 113.088 29.707 113.352 30.3741L108.621 32.3473ZM102.868 37.5H105.193V21.8766H102.868V37.5ZM99.0498 28.3759H98.966C98.4413 27.7494 97.4448 27.182 96.172 27.182C93.5301 27.182 91.0963 29.5168 91.0963 32.5156C91.0963 35.5019 93.5177 37.8086 96.172 37.8086C97.4293 37.8086 98.4413 37.2382 98.966 36.5991H99.0498V37.3628C99.0498 39.3921 97.9695 40.4863 96.2279 40.4863C94.8029 40.4863 93.9182 39.4576 93.5581 38.5973L91.5371 39.4451C92.1176 40.8479 93.6667 42.5842 96.2248 42.5842C98.9505 42.5842 101.26 40.9726 101.26 37.0418V27.5H99.0622V28.3759C99.0653 28.3759 99.0498 28.3759 99.0498 28.3759ZM96.38 35.7232C94.775 35.7232 93.4339 34.3766 93.4339 32.5156C93.4339 30.639 94.775 29.2799 96.38 29.2799C97.9695 29.2799 99.2019 30.6546 99.2019 32.5156C99.2174 34.3766 97.9726 35.7232 96.38 35.7232ZM126.729 21.8766H121.169V37.5H123.494V31.5835H126.732C129.306 31.5835 131.836 29.7101 131.836 26.7363C131.836 23.7625 129.315 21.8766 126.729 21.8766ZM126.797 29.4015H123.491V24.0399H126.797C128.539 24.0399 129.523 25.4832 129.523 26.7207C129.523 27.9458 128.526 29.4015 126.797 29.4015ZM141.155 27.1665C139.466 27.1665 137.725 27.9177 137.004 29.5542L139.066 30.4146C139.51 29.5542 140.323 29.2612 141.183 29.2612C142.388 29.2612 143.604 29.9844 143.632 31.2749V31.4402C143.216 31.2032 142.304 30.8416 141.211 30.8416C138.985 30.8416 136.728 32.0636 136.728 34.3547C136.728 36.4526 138.554 37.7993 140.587 37.7993C142.149 37.7993 143.008 37.0916 143.545 36.2718H143.629V37.4813H145.871V31.4963C145.871 28.7095 143.809 27.1665 141.155 27.1665ZM140.863 35.7232C140.103 35.7232 139.038 35.3491 139.038 34.389C139.038 33.1796 140.367 32.7213 141.5 32.7213C142.524 32.7213 143.008 32.9426 143.617 33.2481C143.449 34.6509 142.27 35.7107 140.863 35.7232ZM154.048 27.5L151.378 34.2768H151.294L148.528 27.5H146.026L150.177 36.9732L147.811 42.2382H150.232L156.618 27.5H154.048ZM133.118 37.5H135.443V21.8766H133.118V37.5Z" fill="white"/>
<path fill-rule="evenodd" clip-rule="evenodd" d="M12.989 9.41668C12.6289 9.80634 12.4209 10.4017 12.4209 11.181V38.8213C12.4209 39.6006 12.6289 40.196 13.0014 40.5701L13.0977 40.6542L28.5204 25.1679V24.8219L13.0852 9.33252L12.989 9.41668Z" fill="url(#paint0_linear_1334_323)"/>
<path fill-rule="evenodd" clip-rule="evenodd" d="M33.6514 30.3463L28.5073 25.1811V24.8195L33.6514 19.6543L33.7631 19.7229L39.8478 23.1954C41.5894 24.1805 41.5894 25.8077 39.8478 26.8052L33.7631 30.2777L33.6514 30.3463Z" fill="url(#paint1_linear_1334_323)"/>
<path fill-rule="evenodd" clip-rule="evenodd" d="M33.764 30.2774L28.5083 25L12.9893 40.5829C13.5574 41.1939 14.5104 41.2625 15.5752 40.6671L33.764 30.2774Z" fill="url(#paint2_linear_1334_323)"/>
<path fill-rule="evenodd" clip-rule="evenodd" d="M33.764 19.7226L15.5752 9.34849C14.5104 8.73752 13.5543 8.82168 12.9893 9.43265L28.5083 25L33.764 19.7226Z" fill="url(#paint3_linear_1334_323)"/>
<path opacity="0.2" fill-rule="evenodd" clip-rule="evenodd" d="M33.6522 30.165L15.5875 40.4705C14.5785 41.0534 13.6782 41.0129 13.0977 40.483L13.0015 40.5796L13.0977 40.6638C13.6782 41.1906 14.5785 41.2342 15.5875 40.6513L33.7763 30.2773L33.6522 30.165Z" fill="black"/>
<path opacity="0.12" fill-rule="evenodd" clip-rule="evenodd" d="M39.8482 26.6241L33.6362 30.1652L33.748 30.2774L39.8326 26.8049C40.705 26.3061 41.1334 25.6515 41.1334 25C41.0806 25.5985 40.6367 26.1658 39.8482 26.6241Z" fill="black"/>
<path opacity="0.25" fill-rule="evenodd" clip-rule="evenodd" d="M15.575 9.52936L39.8484 23.376C40.637 23.8218 41.0809 24.4047 41.1492 25.0001C41.1492 24.3486 40.7208 23.6939 39.8484 23.1952L15.575 9.34856C13.8334 8.34794 12.4209 9.18335 12.4209 11.1815V11.3623C12.4209 9.36103 13.8334 8.54121 15.575 9.52936Z" fill="white"/>
</g>
<defs>
<linearGradient id="paint0_linear_1334_323" x1="27.137" y1="10.8828" x2="2.41902" y2="17.4419" gradientUnits="userSpaceOnUse">
<stop stop-color="#00A0FF"/>
<stop offset="0.00657" stop-color="#00A1FF"/>
<stop offset="0.2601" stop-color="#00BEFF"/>
<stop offset="0.5122" stop-color="#00D2FF"/>
<stop offset="0.7604" stop-color="#00DFFF"/>
<stop offset="1" stop-color="#00E3FF"/>
</linearGradient>
<linearGradient id="paint1_linear_1334_323" x1="42.119" y1="25.0004" x2="11.9968" y2="25.0004" gradientUnits="userSpaceOnUse">
<stop stop-color="#FFE000"/>
<stop offset="0.4087" stop-color="#FFBD00"/>
<stop offset="0.7754" stop-color="#FFA500"/>
<stop offset="1" stop-color="#FF9C00"/>
</linearGradient>
<linearGradient id="paint2_linear_1334_323" x1="30.9061" y1="27.8717" x2="10.9527" y2="61.3173" gradientUnits="userSpaceOnUse">
<stop stop-color="#FF3A44"/>
<stop offset="1" stop-color="#C31162"/>
</linearGradient>
<linearGradient id="paint3_linear_1334_323" x1="9.08141" y1="0.223476" x2="17.9835" y2="15.1608" gradientUnits="userSpaceOnUse">
<stop stop-color="#32A071"/>
<stop offset="0.0685" stop-color="#2DA771"/>
<stop offset="0.4762" stop-color="#15CF74"/>
<stop offset="0.8009" stop-color="#06E775"/>
<stop offset="1" stop-color="#00F076"/>
</linearGradient>
<clipPath id="clip0_1334_323">
<rect width="168.75" height="50" fill="white"/>
</clipPath>
</defs>
</svg>
