<svg width="28" height="28" viewBox="0 0 28 28" fill="none" xmlns="http://www.w3.org/2000/svg">
<path d="M13.5612 8.4257C12.5392 8.4257 10.9572 7.2637 9.29116 7.3057C7.09316 7.3337 5.07716 8.5797 3.94316 10.5537C1.66116 14.5157 3.35516 20.3677 5.58116 23.5877C6.67316 25.1557 7.96116 26.9197 9.66916 26.8637C11.3072 26.7937 11.9232 25.7997 13.9112 25.7997C15.8852 25.7997 16.4452 26.8637 18.1812 26.8217C19.9452 26.7937 21.0652 25.2257 22.1432 23.6437C23.3892 21.8237 23.9072 20.0597 23.9352 19.9617C23.8932 19.9477 20.5052 18.6457 20.4632 14.7257C20.4352 11.4497 23.1372 9.8817 23.2632 9.8117C21.7232 7.5577 19.3572 7.3057 18.5312 7.2497C16.3752 7.0817 14.5692 8.4257 13.5612 8.4257ZM17.2012 5.1217C18.1112 4.0297 18.7132 2.5037 18.5452 0.991699C17.2432 1.0477 15.6752 1.8597 14.7372 2.9517C13.8972 3.9177 13.1692 5.4717 13.3652 6.9557C14.8072 7.0677 16.2912 6.2137 17.2012 5.1217Z" fill="white"/>
</svg>
