<svg width="28" height="28" viewBox="0 0 28 28" fill="none" xmlns="http://www.w3.org/2000/svg">
<path d="M2.33301 23.3334H25.6663V25.6667H2.33301V23.3334ZM4.66634 14H6.99967V22.1667H4.66634V14ZM10.4997 14H12.833V22.1667H10.4997V14ZM15.1663 14H17.4997V22.1667H15.1663V14ZM20.9997 14H23.333V22.1667H20.9997V14ZM2.33301 8.16671L13.9997 2.33337L25.6663 8.16671V12.8334H2.33301V8.16671ZM4.66634 9.60871V10.5H23.333V9.60871L13.9997 4.94204L4.66634 9.60871ZM13.9997 9.33337C13.6903 9.33337 13.3935 9.21046 13.1747 8.99167C12.9559 8.77287 12.833 8.47613 12.833 8.16671C12.833 7.85729 12.9559 7.56054 13.1747 7.34175C13.3935 7.12296 13.6903 7.00004 13.9997 7.00004C14.3091 7.00004 14.6058 7.12296 14.8246 7.34175C15.0434 7.56054 15.1663 7.85729 15.1663 8.16671C15.1663 8.47613 15.0434 8.77287 14.8246 8.99167C14.6058 9.21046 14.3091 9.33337 13.9997 9.33337Z" fill="#5BB5A2"/>
</svg>
