<svg width="28" height="28" viewBox="0 0 28 28" fill="none" xmlns="http://www.w3.org/2000/svg">
<path d="M13.9997 25.6666C7.55618 25.6666 2.33301 20.4434 2.33301 13.9999C2.33301 7.55642 7.55618 2.33325 13.9997 2.33325C20.4432 2.33325 25.6663 7.55642 25.6663 13.9999C25.6663 20.4434 20.4432 25.6666 13.9997 25.6666ZM13.9997 23.3333C16.475 23.3333 18.849 22.3499 20.5993 20.5996C22.3497 18.8492 23.333 16.4753 23.333 13.9999C23.333 11.5246 22.3497 9.1506 20.5993 7.40026C18.849 5.64992 16.475 4.66659 13.9997 4.66659C11.5243 4.66659 9.15035 5.64992 7.40001 7.40026C5.64967 9.1506 4.66634 11.5246 4.66634 13.9999C4.66634 16.4753 5.64967 18.8492 7.40001 20.5996C9.15035 22.3499 11.5243 23.3333 13.9997 23.3333V23.3333ZM10.4997 9.33325H17.4997L20.4163 13.4166L13.9997 19.8333L7.58301 13.4166L10.4997 9.33325ZM11.7013 11.6666L10.628 13.1716L13.9997 16.5433L17.3713 13.1716L16.298 11.6666H11.7013V11.6666Z" fill="#5BB5A2"/>
</svg>
