<svg width="28" height="28" viewBox="0 0 28 28" fill="none" xmlns="http://www.w3.org/2000/svg">
<path d="M13.9997 25.6667C7.55618 25.6667 2.33301 20.4435 2.33301 14C2.33301 7.55654 7.55618 2.33337 13.9997 2.33337C20.4432 2.33337 25.6663 7.55654 25.6663 14C25.6663 20.4435 20.4432 25.6667 13.9997 25.6667ZM11.328 22.9449C10.177 20.5034 9.51019 17.862 9.36451 15.1667H4.73867C4.96569 16.9621 5.70925 18.6529 6.879 20.0337C8.04876 21.4145 9.59436 22.4258 11.328 22.9449V22.9449ZM11.7013 15.1667C11.8775 18.0122 12.6907 20.685 13.9997 23.044C15.344 20.6227 16.1294 17.9311 16.298 15.1667H11.7013V15.1667ZM23.2607 15.1667H18.6348C18.4892 17.862 17.8224 20.5034 16.6713 22.9449C18.405 22.4258 19.9506 21.4145 21.1203 20.0337C22.2901 18.6529 23.0337 16.9621 23.2607 15.1667V15.1667ZM4.73867 12.8334H9.36451C9.51019 10.1381 10.177 7.49667 11.328 5.05521C9.59436 5.57423 8.04876 6.58559 6.879 7.96639C5.70925 9.34718 4.96569 11.038 4.73867 12.8334V12.8334ZM11.7025 12.8334H16.2968C16.1286 10.0691 15.3436 7.3775 13.9997 4.95604C12.6553 7.3774 11.87 10.069 11.7013 12.8334H11.7025ZM16.6713 5.05521C17.8224 7.49667 18.4892 10.1381 18.6348 12.8334H23.2607C23.0337 11.038 22.2901 9.34718 21.1203 7.96639C19.9506 6.58559 18.405 5.57423 16.6713 5.05521V5.05521Z" fill="#5BB5A2"/>
</svg>
