<svg width="28" height="28" viewBox="0 0 28 28" fill="none" xmlns="http://www.w3.org/2000/svg">
<path d="M13.9997 25.6667C7.55618 25.6667 2.33301 20.4435 2.33301 14C2.33301 7.55654 7.55618 2.33337 13.9997 2.33337C20.4432 2.33337 25.6663 7.55654 25.6663 14C25.6663 20.4435 20.4432 25.6667 13.9997 25.6667ZM13.9997 23.3334C16.475 23.3334 18.849 22.35 20.5993 20.5997C22.3497 18.8494 23.333 16.4754 23.333 14C23.333 11.5247 22.3497 9.15072 20.5993 7.40038C18.849 5.65004 16.475 4.66671 13.9997 4.66671C11.5243 4.66671 9.15035 5.65004 7.40001 7.40038C5.64967 9.15072 4.66634 11.5247 4.66634 14C4.66634 16.4754 5.64967 18.8494 7.40001 20.5997C9.15035 22.35 11.5243 23.3334 13.9997 23.3334V23.3334ZM11.7247 12.8334H17.4997V15.1667H11.7247C11.8257 15.6629 12.0543 16.1243 12.3878 16.5054C12.7212 16.8865 13.1482 17.1742 13.6266 17.3401C14.1051 17.5061 14.6185 17.5447 15.1163 17.452C15.6142 17.3594 16.0793 17.1387 16.466 16.8117L18.4493 18.1335C17.7678 18.8755 16.8872 19.4056 15.9127 19.6608C14.9381 19.9159 13.9107 19.8853 12.953 19.5725C11.9954 19.2597 11.148 18.678 10.5119 17.8968C9.87578 17.1156 9.47789 16.1679 9.36567 15.1667H8.16634V12.8334H9.36451C9.47634 11.8317 9.87413 10.8834 10.5104 10.1017C11.1466 9.32007 11.9944 8.73805 12.9525 8.4252C13.9106 8.11236 14.9385 8.08191 15.9134 8.3375C16.8884 8.59308 17.7691 9.12389 18.4505 9.86654L16.466 11.1884C16.0793 10.8614 15.6142 10.6407 15.1163 10.548C14.6185 10.4554 14.1051 10.494 13.6266 10.6599C13.1482 10.8259 12.7212 11.1136 12.3878 11.4947C12.0543 11.8758 11.8257 12.3372 11.7247 12.8334Z" fill="#5BB5A2"/>
</svg>
