<svg width="28" height="28" viewBox="0 0 28 28" fill="none" xmlns="http://www.w3.org/2000/svg">
<path d="M23.333 9.33333V5.83333H4.66634V9.33333H23.333ZM23.333 11.6667H4.66634V22.1667H23.333V11.6667ZM3.49967 3.5H24.4997C24.8091 3.5 25.1058 3.62292 25.3246 3.84171C25.5434 4.0605 25.6663 4.35725 25.6663 4.66667V23.3333C25.6663 23.6428 25.5434 23.9395 25.3246 24.1583C25.1058 24.3771 24.8091 24.5 24.4997 24.5H3.49967C3.19026 24.5 2.89351 24.3771 2.67472 24.1583C2.45592 23.9395 2.33301 23.6428 2.33301 23.3333V4.66667C2.33301 4.35725 2.45592 4.0605 2.67472 3.84171C2.89351 3.62292 3.19026 3.5 3.49967 3.5V3.5ZM12.833 16.3333H19.833V18.6667H7.58301L12.833 13.4167V16.3333Z" fill="#5BB5A2"/>
</svg>
