<svg width="28" height="28" viewBox="0 0 28 28" fill="none" xmlns="http://www.w3.org/2000/svg">
<path d="M12.8333 2.33331L21.3477 4.99331C21.5851 5.06745 21.7927 5.21554 21.94 5.41598C22.0874 5.61642 22.1668 5.85871 22.1667 6.10748V8.16665H24.5C24.8094 8.16665 25.1062 8.28956 25.325 8.50836C25.5438 8.72715 25.6667 9.02389 25.6667 9.33331V11.6666H10.5V9.33331C10.5 9.02389 10.6229 8.72715 10.8417 8.50836C11.0605 8.28956 11.3572 8.16665 11.6667 8.16665H19.8333V6.96498L12.8333 4.77631L5.83333 6.96498V15.603C5.83317 16.3172 5.99696 17.022 6.31209 17.663C6.62723 18.304 7.08529 18.8641 7.651 19.3001L7.8715 19.4588L12.8333 22.8433L17.2457 19.8333H11.6667C11.3572 19.8333 11.0605 19.7104 10.8417 19.4916C10.6229 19.2728 10.5 18.9761 10.5 18.6666V14H25.6667V18.6666C25.6667 18.9761 25.5438 19.2728 25.325 19.4916C25.1062 19.7104 24.8094 19.8333 24.5 19.8333L20.7433 19.8345C20.2918 20.4295 19.7435 20.9545 19.11 21.3861L12.8333 25.6666L6.55667 21.3873C5.61461 20.745 4.84371 19.8823 4.311 18.8742C3.77828 17.8661 3.49988 16.7432 3.5 15.603V6.10748C3.50014 5.85891 3.57967 5.61689 3.72699 5.41668C3.87431 5.21647 4.08173 5.06855 4.319 4.99448L12.8333 2.33331Z" fill="#5BB5A2"/>
</svg>
