<svg width="28" height="28" viewBox="0 0 28 28" fill="none" xmlns="http://www.w3.org/2000/svg">
<path d="M11.6668 23.3334H7.00016V25.6667H4.66683V23.3334H3.50016C3.19074 23.3334 2.894 23.2105 2.6752 22.9917C2.45641 22.7729 2.3335 22.4761 2.3335 22.1667V4.6667C2.3335 4.35728 2.45641 4.06054 2.6752 3.84175C2.894 3.62295 3.19074 3.50004 3.50016 3.50004H11.6668V1.85504C11.6669 1.77036 11.6853 1.68671 11.721 1.60989C11.7566 1.53307 11.8085 1.46493 11.8731 1.4102C11.9377 1.35547 12.0135 1.31546 12.0951 1.29295C12.1767 1.27045 12.2623 1.26598 12.3458 1.27987L24.6915 3.33787C24.9639 3.38316 25.2114 3.52362 25.39 3.73425C25.5686 3.94489 25.6667 4.21205 25.6668 4.4882V7.00004H26.8335V9.33337H25.6668V17.5H26.8335V19.8334H25.6668V22.3452C25.6667 22.6214 25.5686 22.8885 25.39 23.0992C25.2114 23.3098 24.9639 23.4502 24.6915 23.4955L23.3335 23.7219V25.6667H21.0002V24.1115L12.3458 25.5535C12.2623 25.5674 12.1767 25.563 12.0951 25.5405C12.0135 25.5179 11.9377 25.4779 11.8731 25.4232C11.8085 25.3685 11.7566 25.3003 11.721 25.2235C11.6853 25.1467 11.6669 25.063 11.6668 24.9784V23.3334ZM14.0002 22.9134L23.3335 21.357V5.47637L14.0002 3.9212V22.9122V22.9134ZM19.2502 16.3334C18.2842 16.3334 17.5002 15.0267 17.5002 13.4167C17.5002 11.8067 18.2842 10.5 19.2502 10.5C20.2162 10.5 21.0002 11.8067 21.0002 13.4167C21.0002 15.0267 20.2162 16.3334 19.2502 16.3334Z" fill="#5BB5A2"/>
</svg>
