<svg width="28" height="28" viewBox="0 0 28 28" fill="none" xmlns="http://www.w3.org/2000/svg">
<path d="M8.16683 4.66671V23.3334H19.8335V4.66671H8.16683ZM7.00016 2.33337H21.0002C21.3096 2.33337 21.6063 2.45629 21.8251 2.67508C22.0439 2.89388 22.1668 3.19062 22.1668 3.50004V24.5C22.1668 24.8095 22.0439 25.1062 21.8251 25.325C21.6063 25.5438 21.3096 25.6667 21.0002 25.6667H7.00016C6.69074 25.6667 6.394 25.5438 6.17521 25.325C5.95641 25.1062 5.8335 24.8095 5.8335 24.5V3.50004C5.8335 3.19062 5.95641 2.89388 6.17521 2.67508C6.394 2.45629 6.69074 2.33337 7.00016 2.33337ZM14.0002 19.8334C14.3096 19.8334 14.6063 19.9563 14.8251 20.1751C15.0439 20.3939 15.1668 20.6906 15.1668 21C15.1668 21.3095 15.0439 21.6062 14.8251 21.825C14.6063 22.0438 14.3096 22.1667 14.0002 22.1667C13.6907 22.1667 13.394 22.0438 13.1752 21.825C12.9564 21.6062 12.8335 21.3095 12.8335 21C12.8335 20.6906 12.9564 20.3939 13.1752 20.1751C13.394 19.9563 13.6907 19.8334 14.0002 19.8334V19.8334Z" fill="#5BB5A2"/>
</svg>
