<svg width="28" height="28" viewBox="0 0 28 28" fill="none" xmlns="http://www.w3.org/2000/svg">
<path d="M0.805176 8.16319C4.53745 5.13956 9.19683 3.49292 14.0002 3.50002C18.9993 3.50002 23.5902 5.24652 27.1952 8.16319L25.7298 9.97852C22.4121 7.29061 18.2701 5.82687 14.0002 5.83336C9.55634 5.83336 5.47651 7.38502 2.27051 9.97852L0.805176 8.16319ZM4.46968 12.7015C7.16538 10.5175 10.5308 9.32815 14.0002 9.33336C17.4694 9.3282 20.8346 10.5171 23.5307 12.7004L22.0642 14.5157C19.7832 12.6681 16.9356 11.662 14.0002 11.6667C10.9458 11.6667 8.14001 12.7342 5.93618 14.5157L4.46968 12.7004V12.7015ZM8.13534 17.2399C9.79416 15.8957 11.8651 15.1637 14.0002 15.1667C16.2215 15.1667 18.262 15.9425 19.865 17.2387L18.3985 19.054C17.1544 18.0463 15.6012 17.4975 14.0002 17.5C12.3342 17.5 10.8035 18.0822 9.60184 19.054L8.13534 17.2387V17.2399ZM11.801 21.7782C12.4229 21.2739 13.1995 20.9991 14.0002 21C14.8332 21 15.5985 21.2917 16.1993 21.777L14.0002 24.5L11.801 21.777V21.7782Z" fill="#5BB5A2"/>
</svg>
