<svg width="56" height="56" viewBox="0 0 56 56" fill="none" xmlns="http://www.w3.org/2000/svg">
<g clip-path="url(#clip0_618_271)">
<path d="M46.6669 37.0657C46.5228 37.2106 46.3514 37.3257 46.1627 37.4042C45.9739 37.4827 45.7715 37.5231 45.5671 37.5231C45.3627 37.5231 45.1603 37.4827 44.9716 37.4042C44.7828 37.3257 44.6115 37.2106 44.4673 37.0657L42.2678 34.8661C42.1228 34.722 42.0078 34.5506 41.9293 34.3619C41.8508 34.1731 41.8104 33.9708 41.8104 33.7663C41.8104 33.5619 41.8508 33.3595 41.9293 33.1708C42.0078 32.982 42.1228 32.8107 42.2678 32.6666L46.6669 28.2675C46.8112 28.1229 46.9826 28.0082 47.1714 27.9299C47.3601 27.8516 47.5624 27.8114 47.7667 27.8114C47.971 27.8114 48.1732 27.8516 48.362 27.9299C48.5507 28.0082 48.7221 28.1229 48.8664 28.2675L51.066 30.467C51.2109 30.6111 51.326 30.7825 51.4045 30.9712C51.483 31.16 51.5234 31.3624 51.5234 31.5668C51.5234 31.7712 51.483 31.9736 51.4045 32.1623C51.326 32.3511 51.2109 32.5224 51.066 32.6666L46.6669 37.0657ZM23.3335 13.7323C23.1894 13.8773 23.0181 13.9923 22.8293 14.0708C22.6406 14.1493 22.4382 14.1897 22.2338 14.1897C22.0294 14.1897 21.827 14.1493 21.6382 14.0708C21.4495 13.9923 21.2781 13.8773 21.134 13.7323L18.9344 11.5328C18.7895 11.3887 18.6745 11.2173 18.596 11.0286C18.5175 10.8398 18.4771 10.6374 18.4771 10.433C18.4771 10.2286 18.5175 10.0262 18.596 9.83746C18.6745 9.64872 18.7895 9.47736 18.9344 9.33323L23.3335 4.93412C23.4779 4.78954 23.6493 4.67483 23.838 4.59657C24.0267 4.51831 24.229 4.47803 24.4333 4.47803C24.6376 4.47803 24.8399 4.51831 25.0286 4.59657C25.2173 4.67483 25.3888 4.78954 25.5331 4.93412L27.7327 7.13367C27.8776 7.2778 27.9926 7.44916 28.0711 7.6379C28.1496 7.82664 28.19 8.02904 28.19 8.23345C28.19 8.43786 28.1496 8.64026 28.0711 8.829C27.9926 9.01774 27.8776 9.1891 27.7327 9.33323L23.3335 13.7323Z" fill="#66757F"/>
<path d="M3.11102 34.2223C6.22213 34.2223 20.2221 35.7778 20.2221 35.7778C20.2221 35.7778 21.7777 49.7778 21.7777 52.889C21.7777 56.0001 18.6666 56.0001 17.111 54.4445C15.5555 52.889 10.8888 45.1112 10.8888 45.1112C10.8888 45.1112 3.11102 40.4445 1.55546 38.889C-9.07779e-05 37.3334 -9.07779e-05 34.2223 3.11102 34.2223ZM6.22213 9.39406C10.8888 9.3334 45.111 10.889 45.111 10.889C45.111 10.889 46.5484 45.1112 46.6075 49.7778C46.6666 54.4445 42.3095 56.0032 40.5999 49.7794C38.8904 43.5556 32.6666 23.3334 32.6666 23.3334C32.6666 23.3334 10.9588 16.4625 6.21435 15.397C-9.10163e-05 14.0001 1.55391 9.45317 6.22213 9.39406Z" fill="#55ACEE"/>
<path d="M41.9998 4.66668C45.1109 1.55556 52.8887 9.0003e-06 54.4442 1.55556C55.9998 3.11112 54.4442 10.8889 51.3331 14C48.222 17.1111 21.7776 42 21.7776 42C21.7776 42 11.6665 49 9.33312 46.6667C6.99979 44.3333 13.9998 34.2222 13.9998 34.2222C13.9998 34.2222 38.8887 7.77779 41.9998 4.66668Z" fill="#CCD6DD"/>
<path d="M21.7777 34.2223C21.7777 34.2223 22.5554 35.0001 15.5554 42.0001C8.55544 49.0001 7.77766 48.2223 7.77766 48.2223C7.77766 48.2223 6.99989 47.4445 13.9999 40.4445C20.9999 33.4445 21.7777 34.2223 21.7777 34.2223ZM45.111 6.2223C46.3487 6.2223 47.5357 6.71397 48.4108 7.58914C49.286 8.46431 49.7777 9.65129 49.7777 10.889H51.0299C51.2072 10.399 51.3332 9.88564 51.3332 9.33342C51.3332 8.09574 50.8416 6.90875 49.9664 6.03358C49.0912 5.15841 47.9042 4.66675 46.6666 4.66675C46.1143 4.66675 45.601 4.79275 45.111 4.97008V6.2223Z" fill="#66757F"/>
</g>
<defs>
<clipPath id="clip0_618_271">
<rect width="56" height="56" fill="white"/>
</clipPath>
</defs>
</svg>
